<svg xmlns="http://www.w3.org/2000/svg" style="position:absolute; width: 0; height: 0"><symbol viewBox="0 0 58.301 113.904" id="icon-arrow-big"><path data-name="Path 36" d="M1.067 1.053l55.128 55.9-55.128 55.9" fill="none" stroke="#232323" stroke-width="3"></path></symbol><symbol viewBox="0 0 8.883 14.939" id="icon-arrow-r"><path data-name="Path 42" d="M.707 14.232L7.47 7.469.707.706" fill="none" stroke="#000" stroke-width="2"></path></symbol><symbol viewBox="0 0 19 11" id="icon-arrow-t"><path d="M1 10l8.5-8 8.5 8" stroke="#000" stroke-width="2"></path></symbol><symbol viewBox="0 0 15.818 20" id="icon-attachment"><path d="M15.724 8.946l-4.661 9.9a2 2 0 0 1-2.658.967l-7.25-3.381a2 2 0 0 1-.967-2.658L6.117 1.156A2 2 0 0 1 8.775.189l4.531 2.113a2 2 0 0 1 .967 2.658l-4.238 8.993a2 2 0 0 1-2.658.967l-1.812-.845a2 2 0 0 1-.968-2.658l2.971-6.274a1 1 0 1 1 1.812.845l-2.547 5.368a1 1 0 1 0 1.812.845l3.393-7.179a1 1 0 0 0-.484-1.33L8.836 2.424a1 1 0 0 0-1.329.484l-5.082 10.8a1 1 0 0 0 .486 1.335l5.429 2.532a1 1 0 0 0 1.335-.486l4.237-8.988a1 1 0 1 1 1.812.845z" fill="#949ba8"></path></symbol><symbol viewBox="0 0 512 512" id="icon-auth-user"><path d="M256 512c-60.615 0-119.406-21.564-165.543-60.721a258.626 258.626 0 0 1-30.201-30.275C21.397 374.944 0 316.347 0 256c0-68.381 26.628-132.668 74.98-181.02S187.619 0 256 0s132.668 26.628 181.02 74.98S512 187.619 512 256c0 60.348-21.397 118.945-60.251 164.998a258.694 258.694 0 0 1-30.209 30.284C375.406 490.436 316.615 512 256 512zm0-480C132.486 32 32 132.486 32 256c0 52.805 18.719 104.074 52.709 144.363a226.621 226.621 0 0 0 26.451 26.516C151.524 461.135 202.961 480 256 480s104.476-18.865 144.837-53.119a226.613 226.613 0 0 0 26.459-26.525C461.281 360.075 480 308.806 480 256c0-123.514-100.486-224-224-224z"></path><path d="M256 256c-52.935 0-96-43.065-96-96s43.065-96 96-96 96 43.065 96 96-43.065 96-96 96zm0-160c-35.29 0-64 28.71-64 64s28.71 64 64 64 64-28.71 64-64-28.71-64-64-64z"></path><path d="M411.202 455.084c-1.29 0-2.6-.157-3.908-.485-8.57-2.151-13.774-10.843-11.623-19.414A144.657 144.657 0 0 0 400 400c0-78.285-63.646-142.866-141.893-143.99L256 256l-2.107.01C175.646 257.134 112 321.715 112 400c0 11.904 1.457 23.742 4.329 35.185 2.151 8.571-3.053 17.263-11.623 19.414s-17.263-3.052-19.414-11.623A176.64 176.64 0 0 1 80 400c0-46.578 18.017-90.483 50.732-123.63 32.683-33.114 76.285-51.708 122.774-52.358l.224-.001L256 224l2.27.01.224.001c46.489.649 90.091 19.244 122.774 52.358C413.983 309.517 432 353.422 432 400a176.64 176.64 0 0 1-5.292 42.976c-1.823 7.262-8.343 12.107-15.506 12.108z"></path></symbol><symbol viewBox="0 0 16 20" id="icon-bill"><path d="M10 0H2a2.006 2.006 0 0 0-2 2v16a2.006 2.006 0 0 0 2 2h12a2.006 2.006 0 0 0 2-2V6zm2 16H4v-2h8zm0-4H4v-2h8zM9 7V1.5L14.5 7z" fill="#9fa6b2"></path></symbol><symbol viewBox="0 0 23.852 18.818" id="icon-blind"><g transform="translate(-399.074 -276.691)"><path d="M411 292.5c-6.4 0-11.5-5.6-11.7-5.8a1.049 1.049 0 0 1 0-1.3c.2-.2 5.3-5.8 11.7-5.8s11.5 5.6 11.7 5.8a1.049 1.049 0 0 1 0 1.3c-.2.2-5.3 5.8-11.7 5.8zm-9.6-6.5c1.5 1.4 5.3 4.5 9.6 4.5s8.1-3.1 9.6-4.5c-1.5-1.4-5.3-4.5-9.6-4.5s-8.1 3.1-9.6 4.5z"></path><circle cx="2" cy="2" r="2" transform="translate(409 284)"></circle></g><path class="interaction" fill="none" stroke="#000" stroke-linecap="round" stroke-width="2" d="M2.5 17.409l19-16"></path></symbol><symbol viewBox="0 0 21.998 15" id="icon-card"><path data-name="Subtraction 1" d="M19.999 15.002h-18a2 2 0 0 1-2-2v-7h22v7a2 2 0 0 1-2 2zm2-11h-22v-2a2 2 0 0 1 2-2h18a2 2 0 0 1 2 2v2z" fill="#9fa6b2"></path></symbol><symbol viewBox="0 0 23.066 18.701" id="icon-cart"><g data-name="Group 19" fill="none" stroke="#232323"><path data-name="Path 24" d="M.028.521c.815-.043 3.991 0 3.991 0l2.962 11.331h12.708"></path><path data-name="Line 34" d="M4.977 2.631h18.09"></path><path data-name="Line 35" d="M4.977 5.631h17.09"></path><path data-name="Line 36" d="M5.977 8.631h15.09"></path><g data-name="Ellipse 14" transform="translate(6.477 14.131)"><circle cx="2.286" cy="2.286" r="2.286" stroke="none"></circle><circle cx="2.286" cy="2.286" r="1.786"></circle></g><g data-name="Ellipse 15" transform="translate(14.791 14.131)"><circle cx="2.286" cy="2.286" r="2.286" stroke="none"></circle><circle cx="2.286" cy="2.286" r="1.786"></circle></g></g></symbol><symbol viewBox="0 0 21 14.5" id="icon-delivery"><path data-name="Path 28" d="M14 7h6V6l-3-3h-3zm0-5h3.571L21 5.333V11a1 1 0 0 1-1 1h-1.5a2.5 2.5 0 0 1-5 0h-7a2.5 2.5 0 0 1-5 0H1a1 1 0 0 1-1-1V1a1 1 0 0 1 1-1h12a1 1 0 0 1 1 1zM8.784 5H3.5a.5.5 0 0 0 0 1h5.293L7.646 7.146a.5.5 0 0 0 .707.707l2-2a.5.5 0 0 0 0-.709l-2-1.978a.5.5 0 0 0-.7.711zM4 13.5A1.5 1.5 0 1 0 2.5 12 1.5 1.5 0 0 0 4 13.5zm12 0a1.5 1.5 0 1 0-1.5-1.5 1.5 1.5 0 0 0 1.5 1.5z" fill="#9fa6b2" fill-rule="evenodd"></path></symbol><symbol viewBox="0 0 16 13" id="icon-description"><g data-name="Group 28" fill="#9fa6b2"><path data-name="Rectangle 189" d="M0 0h16v3H0z"></path><path data-name="Rectangle 190" d="M0 5h13v3H0z"></path><path data-name="Rectangle 191" d="M0 10h9v3H0z"></path></g></symbol><symbol viewBox="0 0 16.453 14.002" id="icon-display-list"><path data-name="Union 2" d="M0 14v-2h16.453v2zm0-6V6h16.453v2zm0-6V0h16.453v2z" fill="#9fa6b2"></path></symbol><symbol viewBox="0 0 17.001 15" id="icon-display-table"><path data-name="Union 4" d="M14.001 15v-3h3v3zm-7 0v-3h3v3zm-7 0v-3h3v3zm14-6V6h3v3zm-7 0V6h3v3zm-7 0V6h3v3zm14-6V0h3v3zm-7 0V0h3v3zm-7 0V0h3v3z" fill="#f7971d"></path></symbol><symbol viewBox="0 0 14.779 18.557" id="icon-doc"><g data-name="Group 27"><path data-name="Path 25" d="M10.917.5v3.834l3.417-.361z" fill="#9fa6b2"></path><path data-name="Path 26" d="M10.167 5.167V0H0v18.557h14.779V4.695z" fill="#9fa6b2"></path></g></symbol><symbol viewBox="0 0 12.7 18.732" id="icon-download"><g data-name="Group 9" fill="none" stroke="#0a0a0c"><path data-name="Path 16" d="M6.352-.004v17.9"></path><path data-name="Path 15" d="M.345 12.302L6.35 18.04l6-5.738"></path></g></symbol><symbol viewBox="0 0 20 20" id="icon-dzen"><path fill-rule="evenodd" clip-rule="evenodd" d="M10.107 20c.135-4.428.25-6.45 1.82-8.072.444-.43.917-.75 1.462-.99 1.447-.641 3.394-.727 6.611-.83 0 3.992-.014 6.978-1.443 8.449-1.471 1.43-4.32 1.443-8.45 1.443zm-.214 0c-2.895 0-5.16-.008-6.764-.504-.684-.21-1.246-.512-1.686-.94C.013 17.087 0 14.1 0 10.108c4.428.135 6.45.25 8.072 1.82 1.57 1.624 1.678 3.645 1.82 8.073zM0 9.893c4.428-.143 6.45-.25 8.072-1.82C9.642 6.448 9.758 4.427 9.892 0c-4.12 0-6.978.014-8.449 1.443C.013 2.914 0 5.9 0 9.893zM10.107 0c.135 4.428.25 6.45 1.82 8.072 1.624 1.57 3.645 1.678 8.073 1.82 0-3.992-.014-6.978-1.443-8.449C17.086.013 14.237 0 10.107 0z" fill="#000"></path></symbol><symbol viewBox="0 0 24 24" id="icon-excel"><path d="M12 3L2 5v14l10 2V3zm2 2v2h2v2h-2v2h2v2h-2v2h2v2h-2v2h8V5h-8zm4 2h2v2h-2V7zM4.176 8.297h1.777l.924 2.215c.075.18.131.39.19.629h.025c.033-.143.1-.362.201-.647l1.03-2.197h1.62l-1.935 3.67L10 15.703H8.271L7.158 13.29a2.053 2.053 0 0 1-.133-.494H7.01a5.91 5.91 0 0 1-.15.514l-1.124 2.394H4l2.06-3.707-1.884-3.7zM18 11h2v2h-2v-2zm0 4h2v2h-2v-2z"></path></symbol><symbol viewBox="0 0 48 48" id="icon-excel1"><path fill="#4CAF50" d="M41 10H25v28h16a1 1 0 0 0 1-1V11a1 1 0 0 0-1-1z"></path><path fill="#FFF" d="M32 15h7v3h-7zm0 10h7v3h-7zm0 5h7v3h-7zm0-10h7v3h-7zm-7-5h5v3h-5zm0 10h5v3h-5zm0 5h5v3h-5zm0-10h5v3h-5z"></path><path fill="#2E7D32" d="M27 42L6 38V10l21-4z"></path><path fill="#FFF" d="M19.129 31l-2.411-4.561c-.092-.171-.186-.483-.284-.938h-.037c-.046.215-.154.541-.324.979L13.652 31H9.895l4.462-7.001L10.274 17h3.837l2.001 4.196c.156.331.296.725.42 1.179h.04c.078-.271.224-.68.439-1.22L19.237 17h3.515l-4.199 6.939 4.316 7.059h-3.74V31z"></path></symbol><symbol viewBox="0 0 12.255 14.808" id="icon-exit"><path d="M2.67 0v2.773h1.077v-1.7h7.431v12.658H3.747v-1.7H2.67v2.773h9.585V0z" fill="#5bceff"></path><path d="M4.576 10.819L0 7.404l4.576-3.415v2.147h5.175V8.67H4.576z" fill="#5bceff"></path></symbol><symbol viewBox="0 0 7.154 15.396" id="icon-facebook"><path d="M7.154 4.985H4.718v-1.6a.651.651 0 0 1 .678-.74h1.722V.009L4.747.004a3 3 0 0 0-3.229 3.223v1.759h-1.52v2.718h1.52v7.693h3.2V7.704h2.158z" fill="#232323"></path></symbol><symbol viewBox="0 0 36.793 36.795" id="icon-favorite"><path data-name="Path 1342" d="M11.29 28l1.384-8.437-6.118-5.778 8.395-1.46 3.711-7.746 3.804 7.534 8.409.99-6.047 6.115 1.486 8.356-7.539-3.754z" fill="none" stroke="#9fa6b2" stroke-miterlimit="10" stroke-width="1.0001"></path></symbol><symbol viewBox="0 0 21 17.5" id="icon-file"><path d="M20 13v3.5H1V13H0v4.5h21V13zM9.8 12.3l.7.7.7-.7L14 9.5l-.7-.7-2.3 2.3V0h-1v11.1L7.7 8.8l-.7.7z"></path></symbol><symbol viewBox="0 0 24.996 25" id="icon-h-tel"><g data-name="Union 5" fill="none"><path d="M17.998 21.5a3.5 3.5 0 0 1 3.5-3.5 3.5 3.5 0 0 1 3.5 3.5 3.5 3.5 0 0 1-3.5 3.5 3.5 3.5 0 0 1-3.5-3.5zm-9 0a3.5 3.5 0 0 1 3.5-3.5 3.5 3.5 0 0 1 3.5 3.5 3.5 3.5 0 0 1-3.5 3.5 3.5 3.5 0 0 1-3.5-3.5zm-9 0a3.5 3.5 0 0 1 3.5-3.5 3.5 3.5 0 0 1 3.5 3.5 3.5 3.5 0 0 1-3.5 3.5 3.5 3.5 0 0 1-3.5-3.5zm18-9a3.5 3.5 0 0 1 3.5-3.5 3.5 3.5 0 0 1 3.5 3.5 3.5 3.5 0 0 1-3.5 3.5 3.5 3.5 0 0 1-3.5-3.5zm-9 0a3.5 3.5 0 0 1 3.5-3.5 3.5 3.5 0 0 1 3.5 3.5 3.5 3.5 0 0 1-3.5 3.5 3.5 3.5 0 0 1-3.5-3.5zm-9 0a3.5 3.5 0 0 1 3.5-3.5 3.5 3.5 0 0 1 3.5 3.5 3.5 3.5 0 0 1-3.5 3.5 3.5 3.5 0 0 1-3.5-3.5zm18-9a3.5 3.5 0 0 1 3.5-3.5 3.5 3.5 0 0 1 3.5 3.5 3.5 3.5 0 0 1-3.5 3.5 3.5 3.5 0 0 1-3.5-3.5zm-9 0a3.5 3.5 0 0 1 3.5-3.5 3.5 3.5 0 0 1 3.5 3.5 3.5 3.5 0 0 1-3.5 3.5 3.5 3.5 0 0 1-3.5-3.5zm-9 0a3.5 3.5 0 0 1 3.5-3.5 3.5 3.5 0 0 1 3.5 3.5 3.5 3.5 0 0 1-3.5 3.5 3.5 3.5 0 0 1-3.5-3.5z"></path><path d="M21.498 24a2.502 2.502 0 0 0 0-5.001 2.502 2.502 0 0 0 0 5.001m-9 0a2.502 2.502 0 0 0 0-5.001 2.502 2.502 0 0 0 0 5.001m-9 0a2.502 2.502 0 0 0 0-5.001 2.502 2.502 0 0 0 0 5.001m18-9.001a2.501 2.501 0 0 0 2.499-2.498c0-1.38-1.121-2.502-2.499-2.502A2.503 2.503 0 0 0 19 12.501a2.501 2.501 0 0 0 2.498 2.498m-9 0a2.501 2.501 0 0 0 2.499-2.498c0-1.38-1.121-2.502-2.499-2.502A2.503 2.503 0 0 0 10 12.501a2.501 2.501 0 0 0 2.498 2.498m-9 0a2.501 2.501 0 0 0 2.498-2.498c0-1.38-1.12-2.502-2.498-2.502a2.503 2.503 0 0 0-2.499 2.502 2.501 2.501 0 0 0 2.499 2.498m18-9a2.501 2.501 0 0 0 2.499-2.498c0-1.38-1.121-2.502-2.499-2.502A2.503 2.503 0 0 0 19 3.501a2.501 2.501 0 0 0 2.498 2.498m-9 0a2.501 2.501 0 0 0 2.499-2.498c0-1.38-1.121-2.502-2.499-2.502A2.503 2.503 0 0 0 10 3.501a2.501 2.501 0 0 0 2.498 2.498m-9 0a2.501 2.501 0 0 0 2.498-2.498c0-1.38-1.12-2.502-2.498-2.502A2.503 2.503 0 0 0 .999 3.501a2.501 2.501 0 0 0 2.499 2.498m18 19.001A3.5 3.5 0 0 1 18 21.501 3.5 3.5 0 1 1 21.498 25zm-9 0A3.5 3.5 0 0 1 9 21.501 3.5 3.5 0 1 1 12.498 25zm-9 0a3.5 3.5 0 0 1-3.499-3.499A3.5 3.5 0 1 1 3.498 25zm18-9.001a3.5 3.5 0 1 1 .002-7 3.5 3.5 0 0 1-.002 7zm-9 0a3.5 3.5 0 1 1 .002-7 3.5 3.5 0 0 1-.002 7zm-9 0a3.5 3.5 0 1 1 .002-7 3.5 3.5 0 0 1-.002 7zm18-9a3.5 3.5 0 1 1 .002-7 3.5 3.5 0 0 1-.002 7zm-9 0a3.5 3.5 0 1 1 .002-7 3.5 3.5 0 0 1-.002 7zm-9 0a3.5 3.5 0 1 1 .002-7 3.5 3.5 0 0 1-.002 7z" fill="#5bceff"></path></g></symbol><symbol viewBox="0 0 44 60" id="icon-icon-award"><path d="M42.465 21.871l1.375-1.797-1.598-1.598 1.054-2.002-1.849-1.31.7-2.15-2.044-.981.32-2.242-2.173-.621-.064-2.257-2.244-.241-.441-2.217-2.259.136-.806-2.102-2.206.514-1.146-1.936-2.09.878L25.527.227l-1.904 1.22L21.878 0l-1.66 1.522-1.96-1.131-1.379 1.786-2.123-.781-1.063 1.996-2.224-.414-.71 2.14-2.26-.034-.339 2.232-2.237.347.045 2.262-2.132.72.417 2.22-1.99 1.077.79 2.117-1.778 1.393 1.14 1.944L.9 21.066l1.453 1.738-1.205 1.902 1.716 1.462-.876 2.096 1.945 1.138-.513 2.2 2.118.805-.134 2.25 2.223.437.251 2.247 2.228.05L2.542 56.05a.945.945 0 0 0 1.315 1.19l7.74-4.07 3.405 6.333a.945.945 0 0 0 .83.497h.052a.946.946 0 0 0 .823-.587l6.15-15.164 5.723 15.137c.13.344.445.58.81.608a.945.945 0 0 0 .895-.476l3.567-6.3 7.646 4.178c.15.081.321.117.472.115.448.023.963-.415.963-.944 0-.21-.07-.404-.185-.561l-7.27-19.207 2.122-.15.155-2.25 2.202-.538-.238-2.25 2.068-.896-.608-2.176 1.896-1.239-.976-2.043 1.66-1.539-1.294-1.847zM15.72 56.845l-2.895-5.386a.945.945 0 0 0-1.27-.39l-6.287 3.307L11.3 39.5l1.709-.255.986 2.032 2.152-.705 1.32 1.841 1.996-1.059 1.61 1.579.428-.33-5.779 14.241zm24.453-2.327l-6.224-3.4a.946.946 0 0 0-1.275.363l-3.032 5.356-5.409-14.307.47.33 1.54-1.668 2.043.96 1.233-1.897 2.177.598.795-1.85.04.01c.251.054.485-.033.691-.172l1.058.107 5.893 15.57zm-1.395-31.32l-1.273 1.183.75 1.567-1.447.947.467 1.667-1.594.691.183 1.724-1.677.41-.117 1.73-1.735.124-.4 1.681-1.723-.172-.684 1.592-1.667-.459-.944 1.454-1.571-.74-1.175 1.277-1.416-.994-1.38 1.062-1.24-1.218-1.523.808-1.009-1.407-1.65.54-.758-1.562-1.712.255L13 33.691l-1.731-.04-.193-1.718-1.703-.336.102-1.726-1.624-.618.394-1.696-1.497-.876.666-1.594-1.318-1.121.928-1.46-1.11-1.328 1.17-1.29-.876-1.491 1.354-1.061-.608-1.626 1.522-.826-.32-1.7 1.647-.556-.036-1.73 1.713-.266.259-1.715 1.731.026.546-1.64 1.71.317.813-1.53 1.634.602 1.057-1.37 1.5.864 1.276-1.17 1.337 1.106 1.45-.929 1.118 1.31 1.6-.67.878 1.486 1.698-.396.619 1.614 1.735-.105.34 1.705 1.72.185.05 1.728 1.663.476-.247 1.72 1.562.748-.537 1.646 1.417 1.005-.809 1.537 1.228 1.228-1.052 1.376 1.003 1.413z" fill="#fff"></path><path d="M35.93 19.964l-.467-.468.31-.586a.945.945 0 0 0-.29-1.21l-.543-.386.205-.63a.942.942 0 0 0-.489-1.143l-.6-.287.094-.663a.949.949 0 0 0-.676-1.042l-.638-.183-.019-.665a.942.942 0 0 0-.844-.91l-.657-.072-.13-.653c-.091-.461-.478-.776-.985-.758l-.664.04-.236-.617a.942.942 0 0 0-1.097-.582l-.652.151-.336-.566a.94.94 0 0 0-1.178-.39l-.62.26-.43-.505a.941.941 0 0 0-1.228-.183l-.559.357-.517-.429a.943.943 0 0 0-1.24.032l-.49.448-.576-.333a.945.945 0 0 0-1.22.242l-.404.523-.625-.232a.95.95 0 0 0-1.161.442l-.312.587-.657-.12a.954.954 0 0 0-1.069.63l-.208.629-.666-.01h-.013a.944.944 0 0 0-.933.803l-.1.657-.66.102a.946.946 0 0 0-.798.954l.013.665-.629.211a.942.942 0 0 0-.627 1.067l.123.657-.587.32a.94.94 0 0 0-.435 1.159l.234.625-.52.41a.945.945 0 0 0-.233 1.22l.334.57-.445.493a.942.942 0 0 0-.027 1.238l.43.512-.356.563a.944.944 0 0 0 .187 1.224l.506.428-.259.62a.946.946 0 0 0 .395 1.178l.57.332-.151.648c-.108.46.142.93.584 1.097l.623.236-.038.661a.941.941 0 0 0 .761.982l.655.129.074.66c.053.47.446.828.918.839l.664.015.187.642a.95.95 0 0 0 1.045.67l.655-.098.289.597a.94.94 0 0 0 1.142.485l.637-.205.389.54a.946.946 0 0 0 1.21.283l.586-.31.475.467a.941.941 0 0 0 1.237.073l.525-.404.544.382a.947.947 0 0 0 1.237-.133l.453-.49.6.28a.94.94 0 0 0 1.194-.34l.363-.56.642.178a.941.941 0 0 0 1.118-.539l.262-.61.663.066a.946.946 0 0 0 1.012-.72l.153-.643.663-.047a.944.944 0 0 0 .874-.878l.046-.665.647-.159a.944.944 0 0 0 .714-1.015l-.07-.663.608-.263a.947.947 0 0 0 .535-1.122l-.178-.64.557-.364a.943.943 0 0 0 .337-1.197l-.288-.6.488-.454c.347-.321.4-.85.128-1.235l-.383-.542.404-.529a.94.94 0 0 0-.087-1.231zm-2.265 2.292l.306.435-.391.362a.947.947 0 0 0-.21 1.1l.23.48-.443.292a.941.941 0 0 0-.393 1.044l.144.512-.49.211a.944.944 0 0 0-.562.967l.056.53-.515.125a.946.946 0 0 0-.718.854l-.036.533-.534.04a.947.947 0 0 0-.852.722l-.122.514-.531-.053a.961.961 0 0 0-.961.569l-.21.489-.514-.142a.94.94 0 0 0-1.042.397l-.29.447-.484-.226a.948.948 0 0 0-1.097.213l-.363.393-.434-.304a.944.944 0 0 0-1.118.024l-.425.327-.383-.376a.943.943 0 0 0-1.103-.16l-.467.249-.31-.434a.94.94 0 0 0-1.059-.348l-.51.166-.232-.48a.956.956 0 0 0-.987-.52l-.525.077-.15-.514a.943.943 0 0 0-.885-.68l-.53-.013-.06-.527a.946.946 0 0 0-.757-.823l-.525-.104.032-.527a.94.94 0 0 0-.608-.938l-.5-.193.12-.52a.942.942 0 0 0-.441-1.028l-.457-.269.206-.494a.942.942 0 0 0-.26-1.082l-.407-.346.285-.45a.946.946 0 0 0-.073-1.112l-.344-.411.359-.397a.942.942 0 0 0 .115-1.112l-.268-.455.415-.327a.945.945 0 0 0 .302-1.073l-.187-.502.47-.257c.361-.196.556-.6.478-1.004l-.098-.525.506-.172a.941.941 0 0 0 .642-.912l-.011-.533.529-.081a.946.946 0 0 0 .787-.793l.08-.525.532.008c.368-.046.78-.257.91-.646l.166-.505.53.099a.954.954 0 0 0 1.006-.486l.25-.47.503.187a.953.953 0 0 0 1.075-.31l.323-.419.46.266a.944.944 0 0 0 1.11-.122l.394-.36.413.345a.94.94 0 0 0 1.11.068l.446-.286.344.403a.941.941 0 0 0 1.084.258l.497-.205.27.453a.947.947 0 0 0 1.027.438l.525-.123.19.499c.148.383.51.617.94.602l.535-.032.106.523c.081.406.416.71.825.753l.527.057.015.53a.945.945 0 0 0 .686.883l.513.145-.075.53a.94.94 0 0 0 .527.985l.48.23-.165.506a.943.943 0 0 0 .351 1.061l.435.308-.248.47a.946.946 0 0 0 .168 1.109l.376.376-.323.425a.935.935 0 0 0-.028 1.117z" fill="#fff"></path><path d="M22.369 12.654c-4.86 0-8.815 3.956-8.815 8.817a.945.945 0 0 0 1.888 0c0-3.82 3.108-6.928 6.927-6.928a.945.945 0 0 0 0-1.889z" fill="#fff"></path></symbol><symbol viewBox="0 0 60 47" id="icon-icon-book"><path d="M59.05 44.28H32.927a.95.95 0 0 1 0-1.9H58.1V9.135h-4.077a.95.95 0 0 1 0-1.9h5.027a.95.95 0 0 1 .95.95V43.33c0 .526-.426.95-.95.95zM26.913 44.28H.95a.95.95 0 0 1-.95-.95V8.185a.95.95 0 0 1 .95-.95h4.987a.95.95 0 0 1 0 1.9H1.9V42.38h25.013a.95.95 0 0 1 0 1.9z" fill="#fff"></path><path d="M54.854 40.718c-.206 0-.414-.035-.614-.103-17.639-6.024-22.814-.629-22.865-.574a1.913 1.913 0 0 1-1.407.627h-.006a1.901 1.901 0 0 1-1.412-.623c-.05-.055-5.231-5.452-22.868.572a1.898 1.898 0 0 1-2.513-1.797V4.15c0-.826.533-1.557 1.32-1.81.659-.209 15.705-4.926 25.473-.34 9.77-4.592 24.814.131 25.471.34.786.253 1.32.984 1.32 1.81v34.67a1.9 1.9 0 0 1-1.9 1.898zM20.268 33.94c5.059 0 8.068 1.305 9.692 2.38 2.716-1.809 9.333-4.257 22.994-.112V5.58c-3.857-1.028-15.245-3.562-22.075.21a1.902 1.902 0 0 1-1.837 0c-6.833-3.772-18.22-1.238-22.076-.21v30.627c5.51-1.67 9.877-2.268 13.302-2.268z" fill="#fff"></path><path d="M30 40.718h-.08a1.9 1.9 0 0 1-1.413-3.167c.364-.41.902-.638 1.464-.654.55.008 1.089.234 1.444.654.477.564.6 1.377.289 2.048-.312.67-.965 1.119-1.704 1.119z" fill="#fff"></path><path d="M29.96 39.724a.95.95 0 0 1-.95-.95V4.131a.95.95 0 0 1 1.9 0v34.643c0 .525-.424.95-.95.95zM32.93 46.416h-6.017a.95.95 0 0 1-.95-.95c0-2.929 1.738-5.224 3.957-5.224 2.221 0 3.96 2.295 3.96 5.224 0 .527-.426.95-.95.95zm-4.978-1.9h3.938c-.26-1.356-1.058-2.374-1.97-2.374-.912 0-1.708 1.018-1.968 2.374z" fill="#fff"></path></symbol><symbol viewBox="0 0 60 48" id="icon-icon-box"><path d="M59.968 8.127a1.778 1.778 0 0 0-.112-.485c-.032-.091-.056-.182-.104-.267a1.842 1.842 0 0 0-.347-.436c-.046-.044-.066-.106-.116-.146-.01-.01-.026-.01-.037-.019a1.835 1.835 0 0 0-.707-.34c-.006-.002-.01-.006-.015-.007h-.002L30.418.047a1.897 1.897 0 0 0-.837 0L1.47 6.427a1.86 1.86 0 0 0-.723.347c-.011.01-.026.01-.037.02-.05.039-.072.101-.118.145-.136.132-.257.27-.347.436-.048.085-.07.174-.104.267a1.818 1.818 0 0 0-.11.484C.028 8.175 0 8.22 0 8.269v30.543c0 .882.61 1.647 1.47 1.842l28.11 6.38a1.844 1.844 0 0 0 .84 0l28.11-6.38A1.89 1.89 0 0 0 60 38.811V8.27c0-.049-.028-.092-.032-.142zM30 12.712l-7.296-1.655 19.254-4.515 7.614 1.729L30 12.712zm-17.388-.07l6.665 1.514v10.082l-1.073-.467a.934.934 0 0 0-.663-.034l-2.803.892-2.126-1.58V12.642zM30 3.828l7.752 1.76-19.255 4.514-8.07-1.831L30 3.828zM3.78 10.637l6.943 1.576v11.31c0 .299.141.58.381.758L14 26.433a.937.937 0 0 0 .849.144l2.927-.932 2.071.898a.944.944 0 0 0 1.323-.867V14.583l6.943 1.576v26.668l-24.33-5.522V10.637H3.78zm52.44 26.668l-24.33 5.522V16.16l24.33-5.522v26.668z" fill="#fff"></path><path d="M35.37 37.625c.069 0 .139-.008.207-.023l10.607-2.407a.944.944 0 0 0 .737-.922V22.745a.945.945 0 0 0-1.153-.922L35.161 24.23a.944.944 0 0 0-.737.922V36.68a.946.946 0 0 0 .945.945zm.944-11.717l8.718-1.978v9.589l-8.718 1.978v-9.589z" fill="#fff"></path><path d="M38.86 29.388a.986.986 0 0 0 .207-.023l3.625-.822a.945.945 0 0 0 .712-1.132.94.94 0 0 0-1.13-.713l-3.625.823a.945.945 0 0 0 .21 1.867zM42.493 30.53l-3.834.832a.946.946 0 0 0 .4 1.848l3.835-.831a.946.946 0 0 0 .722-1.125.93.93 0 0 0-1.123-.724z" fill="#fff"></path></symbol><symbol viewBox="0 0 60 49" id="icon-icon-camera"><path d="M38.292 32.315a.94.94 0 0 0-.94.94c0 4.053-3.297 7.352-7.352 7.352a7.36 7.36 0 0 1-7.352-7.352A7.36 7.36 0 0 1 30 25.902a.94.94 0 0 0 0-1.88c-5.09 0-9.232 4.142-9.232 9.233 0 5.09 4.141 9.232 9.232 9.232 5.09 0 9.232-4.141 9.232-9.232a.94.94 0 0 0-.94-.94z" fill="#fff"></path><path d="M30 35.19a1.934 1.934 0 1 0 0-3.87 1.934 1.934 0 0 0 0 3.87z" fill="#fff"></path><path d="M54.625 6.34h-.481V1.88A1.88 1.88 0 0 0 52.264 0H41.77a1.88 1.88 0 0 0-1.88 1.88v4.46H5.375A5.38 5.38 0 0 0 0 11.713v26.985a5.382 5.382 0 0 0 5.375 5.374h13.221c2.871 3.025 6.915 4.922 11.404 4.922 4.49 0 8.533-1.899 11.404-4.922h13.221A5.38 5.38 0 0 0 60 38.7V11.714a5.38 5.38 0 0 0-5.375-5.375zM43.65 3.76h6.736v2.58H43.65V3.76zM5.375 10.099h49.252c.891 0 1.615.724 1.615 1.615v1.904H3.758v-1.904c0-.891.726-1.615 1.617-1.615zM30 45.235c-6.606 0-11.98-5.375-11.98-11.98 0-6.607 5.374-11.982 11.98-11.982 6.606 0 11.98 5.375 11.98 11.981S36.607 45.235 30 45.235zm24.625-4.924H44.05a15.614 15.614 0 0 0 1.692-7.059c0-8.68-7.061-15.74-15.741-15.74s-15.74 7.06-15.74 15.74c0 2.54.618 4.933 1.691 7.06H5.375a1.616 1.616 0 0 1-1.615-1.615v-2.55h6.247a.94.94 0 0 0 0-1.88H3.76V15.498h52.482v18.77h-6.247a.94.94 0 0 0 0 1.88h6.247v2.549a1.619 1.619 0 0 1-1.617 1.614z" fill="#fff"></path></symbol><symbol viewBox="0 0 50 60" id="icon-icon-doc"><path d="M41.228 60H7.878C3.534 60 0 56.466 0 52.122V7.878C0 3.534 3.534 0 7.878 0h33.35c4.344 0 7.878 3.534 7.878 7.878v44.244c0 4.344-3.534 7.878-7.878 7.878zM7.878 4.022a3.86 3.86 0 0 0-3.856 3.856v44.244a3.86 3.86 0 0 0 3.856 3.856h33.35a3.86 3.86 0 0 0 3.855-3.856V7.878a3.86 3.86 0 0 0-3.855-3.856H7.878z" fill="#fff"></path><path d="M12.033 10.691h3.161l4.615 13.049H16.92l-.883-2.655h-4.95l-.854 2.655H7.417l4.616-13.049zm-.19 8.15h3.464l-1.734-5.248h.002l-1.731 5.247zM39.595 33.47H9.428a2.01 2.01 0 1 1 0-4.022h30.167a2.01 2.01 0 1 1 0 4.023zM39.595 41.43H9.428a2.01 2.01 0 1 1 0-4.022h30.167a2.01 2.01 0 1 1 0 4.023zM39.68 49.31H9.512a2.01 2.01 0 1 1 0-4.023h30.166a2.01 2.01 0 1 1 0 4.022z" fill="#fff"></path></symbol><symbol viewBox="0 0 60 48" id="icon-icon-folders"><path d="M55.438 4.538H36.846v-.619C36.846 1.76 35.087 0 32.927 0H12.404a3.925 3.925 0 0 0-3.92 3.92v3.184H3.92A3.925 3.925 0 0 0 0 11.023v32.53a3.956 3.956 0 0 0 3.952 3.952h43.002a3.956 3.956 0 0 0 3.952-3.953v-3.15h4.532a3.956 3.956 0 0 0 3.953-3.953V8.49a3.956 3.956 0 0 0-3.953-3.952zM3.878 43.552V15.594l.041-4.612h6.505l14.06.04v2.559c0 1.07.868 1.94 1.939 1.94l20.605.073-.074 28.032-43.075-.074zm51.56-7.03h-4.532V15.595a3.956 3.956 0 0 0-3.952-3.952H28.362v-.62c0-2.16-1.759-3.918-3.92-3.918H12.375l.03-3.225 20.564.04v2.558c0 1.07.869 1.94 1.94 1.94h20.53l.074.073-.074 28.033z" fill="#fff"></path><path d="M25.453 18.151c-6.295 0-11.416 5.122-11.416 11.417s5.121 11.416 11.416 11.416S36.87 35.863 36.87 29.568 31.75 18.15 25.453 18.15zm0 18.955c-4.158 0-7.538-3.382-7.538-7.538 0-4.156 3.382-7.538 7.538-7.538 4.156 0 7.538 3.382 7.538 7.538 0 4.156-3.38 7.538-7.538 7.538z" fill="#fff"></path><path d="M28.604 27.629h-1.212v-1.212a1.94 1.94 0 0 0-3.878 0v1.212h-1.212a1.94 1.94 0 0 0 0 3.878h1.212v1.212a1.94 1.94 0 0 0 3.878 0v-1.212h1.212a1.94 1.94 0 0 0 0-3.878z" fill="#fff"></path></symbol><symbol viewBox="0 0 49 60" id="icon-icon-hand"><path d="M43.883 5.125A17.381 17.381 0 0 0 31.509 0c-4.674 0-9.069 1.82-12.371 5.125a17.442 17.442 0 0 0-3.294 20.178l-1.124 1.124c-1.199-.271-3.078-.483-4.869.235-4.256 1.952-7.42 5.3-8.904 9.426C-.63 40.474-.227 45.513 2.08 50.281c2.22 4.588 5.734 7.763 9.9 8.938 1.192.337 2.413.502 3.631.502 2.553 0 5.09-.73 7.287-2.14 5.675-3.642 11.724-10.045 11.937-10.275a4.998 4.998 0 0 0 1.458-3.767c-.064-1.29-.63-2.434-1.594-3.226-.042-.036-.085-.068-.126-.1a4.859 4.859 0 0 0-.68-5.399c3.75-.519 7.278-2.227 9.992-4.94 6.821-6.824 6.822-17.926-.001-24.749zM32.144 44.696c-.058.064-5.99 6.342-11.272 9.73a9.705 9.705 0 0 1-7.879 1.184c-2.207-.623-5.307-2.336-7.542-6.96-1.864-3.854-2.213-7.865-.978-11.295 1.068-2.973 3.314-5.422 6.266-6.947l-2.175 2.175a1.871 1.871 0 0 0 1.325 3.198c.48 0 .959-.184 1.324-.549l5.4-5.399.001-.002L30.286 16.16c.684-.684 1.877-.686 2.563 0a1.8 1.8 0 0 1 .53 1.283c0 .483-.19.938-.53 1.281L21.18 30.394a1.871 1.871 0 0 0 0 2.648 1.871 1.871 0 0 0 2.65 0l1.779-1.78c.08-.058.174-.091.247-.163.575-.576 1.576-.576 2.149 0 .287.287.446.67.446 1.076 0 .405-.16.787-.508 1.135l-1.283 1.407a1.874 1.874 0 0 0 2.769 2.525l.015-.017c.003-.003.007-.003.01-.007a1.112 1.112 0 1 1 1.622 1.516l-1.76 1.423a5.444 5.444 0 0 0-1.049.873 1.873 1.873 0 0 0 2.554 2.728l.704-.57c.247-.127.536-.183.787.02.14.117.217.29.228.514.023.334-.116.691-.397.974zm-.035-13.469a5.218 5.218 0 0 0-1.452-2.78c-.388-.388-.841-.676-1.32-.914l6.16-6.16a5.522 5.522 0 0 0 1.629-3.932 5.53 5.53 0 0 0-1.628-3.932c-2.097-2.1-5.761-2.1-7.861 0l-8.953 8.953a13.701 13.701 0 0 1 3.102-14.688 13.656 13.656 0 0 1 9.723-4.027c3.674 0 7.128 1.43 9.725 4.027 5.36 5.362 5.36 14.088 0 19.45a13.764 13.764 0 0 1-9.125 4.003z" fill="#fff"></path></symbol><symbol viewBox="0 0 60 53" id="icon-icon-map"><path d="M59.088.35a1.918 1.918 0 0 0-1.76-.234L39.297 6.62 21.266.116a1.914 1.914 0 0 0-1.31 0L1.272 6.858C.509 7.134 0 7.858 0 8.67v41.927c0 .628.304 1.216.82 1.576a1.918 1.918 0 0 0 1.762.235l18.03-6.506 18.03 6.506c.426.154.884.154 1.31 0l18.686-6.743c.763-.275 1.271-1 1.271-1.81V1.926a1.92 1.92 0 0 0-.82-1.576zM21.573 4.324l16.76 6.047V48.2l-16.76-6.048V4.323zm-17.722 5.7l15.796-5.698v37.83l-15.796 5.7V10.024zm52.205 32.478L40.261 48.2V10.37l15.795-5.7V42.5z" fill="#fff"></path><path d="M23.715 10.815l11.823 4.268a.969.969 0 0 0 1.235-.58.965.965 0 0 0-.58-1.235L24.372 9a.974.974 0 0 0-1.235.58.965.965 0 0 0 .58 1.234zM36.192 18.511l-11.823-4.265a.975.975 0 0 0-1.235.58.965.965 0 0 0 .58 1.235l11.823 4.265a.969.969 0 0 0 1.235-.58.965.965 0 0 0-.58-1.235zM23.715 21.304l8.34 3.009a.969.969 0 0 0 1.235-.58.965.965 0 0 0-.58-1.235l-8.34-3.01a.974.974 0 0 0-1.234.58.965.965 0 0 0 .58 1.236zM36.192 29l-11.823-4.268a.974.974 0 0 0-1.235.58.965.965 0 0 0 .58 1.235l11.823 4.267a.969.969 0 0 0 1.235-.58.965.965 0 0 0-.58-1.235zM36.192 34.245l-11.823-4.266a.974.974 0 0 0-1.235.58.965.965 0 0 0 .58 1.235l11.823 4.265a.969.969 0 0 0 1.235-.58.965.965 0 0 0-.58-1.234zM30.281 37.354l-5.91-2.133a.965.965 0 0 0-.655 1.815l5.91 2.133a.969.969 0 0 0 1.235-.58.967.967 0 0 0-.58-1.235zM18.142 9.907c0-.052-.021-.099-.03-.149-.01-.06-.006-.12-.028-.179-.003-.01-.011-.015-.013-.023-.027-.07-.071-.125-.114-.185-.029-.042-.05-.09-.085-.127-.053-.056-.12-.095-.188-.137-.037-.023-.068-.054-.108-.073-.066-.03-.14-.04-.214-.054-.05-.01-.098-.029-.15-.03-.012 0-.022-.007-.033-.007-.062 0-.118.025-.177.035-.05.01-.1.004-.15.021L5.83 12.976a.965.965 0 0 0-.636.907v10.488a.96.96 0 0 0 .963.963c.112 0 .22-.019.328-.056l11.021-3.976c.01-.004.016-.012.023-.014.064-.024.116-.067.172-.104.048-.032.102-.057.145-.096.04-.04.067-.09.1-.137.038-.054.082-.102.11-.163.019-.045.023-.095.036-.143.021-.075.044-.146.046-.225 0-.008.004-.016.004-.024V9.906zM7.12 14.56l9.096-3.283v8.438L7.12 23v-8.438zM16.851 24.878L5.83 28.854a.965.965 0 0 0 .655 1.815l11.021-3.976c.501-.181.761-.734.58-1.235a.972.972 0 0 0-1.235-.58zM12.985 31.52L5.83 34.1a.965.965 0 0 0 .655 1.815l7.155-2.582c.5-.18.76-.734.58-1.235a.973.973 0 0 0-1.235-.58zM42.696 14.114c.11 0 .218-.019.327-.056l11.022-3.976a.965.965 0 0 0 .58-1.235.972.972 0 0 0-1.235-.58l-11.022 3.977a.965.965 0 0 0 .328 1.87zM42.696 19.072c.11 0 .218-.02.327-.056l7.155-2.581c.501-.181.761-.734.58-1.235a.971.971 0 0 0-1.235-.58L42.368 17.2a.965.965 0 0 0 .328 1.871zM42.696 25.428c.11 0 .218-.02.327-.056l11.022-3.977a.965.965 0 0 0 .58-1.234.972.972 0 0 0-1.235-.58l-11.022 3.976a.965.965 0 0 0 .328 1.87zM42.696 30.387c.11 0 .218-.019.327-.056l7.155-2.581c.501-.181.761-.734.58-1.235a.971.971 0 0 0-1.235-.58l-7.155 2.582a.965.965 0 0 0 .328 1.87zM42.696 36.745c.11 0 .218-.02.327-.056l11.022-3.976a.965.965 0 0 0 .58-1.235.97.97 0 0 0-1.235-.58l-11.022 3.976a.965.965 0 0 0 .328 1.87zM49.523 37.25l-7.155 2.582a.965.965 0 0 0 .655 1.815l7.155-2.581c.501-.181.761-.734.58-1.235a.97.97 0 0 0-1.235-.58z" fill="#fff"></path></symbol><symbol viewBox="0 0 59 58" id="icon-icon-mouse"><path d="M57.295.135c-.823-.125-5.036-.634-7.008 1.68-.68.797-1.343 2.21-.636 4.43.126.395.046.62-.06.806-.558.982-2.61 1.838-3.89 2.134-.05.011-.088.044-.136.061-3.22-2.656-7.298-4.015-11.668-3.87-4.88.178-9.525 2.237-13.087 5.8L5.8 26.181c-7.39 7.39-7.77 19.037-.845 25.962 3.315 3.314 7.711 4.955 12.204 4.955 4.893 0 9.906-1.948 13.758-5.8L45.924 36.29c6.758-6.76 7.633-17.067 2.441-24.076 1.486-.576 3.46-1.615 4.437-3.322.663-1.158.794-2.462.376-3.771-.16-.496-.152-.816-.078-.903.409-.48 2.297-.62 3.64-.423a1.85 1.85 0 0 0 .555-3.66zM34.03 9.072a17.9 17.9 0 0 1 .544-.01c3.358 0 6.464 1.151 8.892 3.262l-6.53 6.53c-1.007-.503-2.3-.38-3.117.435l-1.803 1.803-7.918-7.918c2.796-2.511 6.285-3.97 9.932-4.102zm-.98 16.35a.854.854 0 0 1-1.173 0l-.202-.202a.83.83 0 0 1 0-1.172l3.452-3.451c.31-.311.863-.311 1.17-.002l.204.205a.818.818 0 0 1 .242.584c0 .222-.087.43-.242.585l-3.451 3.453zm-4.75 23.26c-5.952 5.95-15.253 6.321-20.731.845-5.482-5.482-5.103-14.782.845-20.73L22.76 14.454l7.947 7.946-.34.34a2.684 2.684 0 0 0 0 3.788l.202.202c.505.503 1.178.78 1.893.78.716 0 1.39-.277 1.892-.782l.34-.34 7.948 7.947L28.3 48.68zm15.621-15.683l-7.918-7.917 1.804-1.804a2.67 2.67 0 0 0 .784-1.894c0-.444-.14-.852-.34-1.231l6.519-6.52c4.626 5.334 4.267 13.657-.849 19.366z" fill="#fff"></path></symbol><symbol viewBox="0 0 48 60" id="icon-icon-notebook"><path d="M45.972 3.329h-6.743V1.895a1.895 1.895 0 0 0-3.79 0v1.434h-5.155V1.895a1.895 1.895 0 0 0-3.79 0v1.434H21.34V1.895a1.895 1.895 0 0 0-3.79 0v1.434h-5.155V1.895a1.895 1.895 0 0 0-3.79 0v1.434h-6.71A1.895 1.895 0 0 0 0 5.224v52.881C0 59.151.849 60 1.895 60h44.077a1.895 1.895 0 0 0 1.895-1.895V5.224a1.894 1.894 0 0 0-1.895-1.895zM44.077 56.21H3.79V7.118h4.817v1.433a1.895 1.895 0 0 0 3.789 0V7.118h5.155v1.433a1.895 1.895 0 0 0 3.79 0V7.118h5.155v1.433a1.895 1.895 0 0 0 3.79 0V7.118h5.155v1.433a1.895 1.895 0 0 0 3.789 0V7.118h4.848v49.093z" fill="#fff"></path><path d="M38.42 22.269H9.447a1.895 1.895 0 0 1 0-3.79H38.42a1.895 1.895 0 0 1 0 3.79zM38.42 29.849H9.447a1.895 1.895 0 0 1 0-3.79H38.42a1.895 1.895 0 0 1 0 3.79zM38.42 37.426H9.447a1.895 1.895 0 0 1 0-3.79H38.42a1.895 1.895 0 0 1 0 3.79zM23.598 45.005H9.447a1.895 1.895 0 0 1 0-3.79h14.15a1.895 1.895 0 0 1 0 3.79z" fill="#fff"></path></symbol><symbol viewBox="0 0 40 40" id="icon-icons8-whatsapp"><path fill="#fff" d="M4.221 29.298l-.104-.181a18.425 18.425 0 0 1-2.458-9.205C1.663 9.76 9.926 1.5 20.078 1.5a18.306 18.306 0 0 1 13.03 5.399A18.312 18.312 0 0 1 38.5 19.927c-.005 10.153-8.268 18.414-18.42 18.414a18.472 18.472 0 0 1-8.811-2.24l-.174-.096-9.385 2.46 2.511-9.167z"></path><path fill="#4788c7" d="M20.078 2a17.806 17.806 0 0 1 12.676 5.253A17.815 17.815 0 0 1 38 19.927c-.005 9.878-8.043 17.914-17.927 17.914a17.943 17.943 0 0 1-8.564-2.18l-.349-.19-.384.101-8.354 2.19 2.226-8.131.11-.403-.208-.361a17.901 17.901 0 0 1-2.391-8.955C2.163 10.036 10.202 2 20.078 2m0-1C9.651 1 1.163 9.485 1.158 19.912a18.86 18.86 0 0 0 2.525 9.455L1 39.169l10.03-2.63a18.916 18.916 0 0 0 9.042 2.302h.008c10.427 0 18.915-8.485 18.92-18.914a18.81 18.81 0 0 0-5.538-13.382A18.802 18.802 0 0 0 20.078 1z"></path><path fill="#98ccfd" d="M19.995 35a15.022 15.022 0 0 1-7.166-1.823l-1.433-.782-1.579.414-3.241.85.83-3.03.453-1.656L7 27.485a14.99 14.99 0 0 1-2-7.492C5.004 11.726 11.732 5.001 19.998 5a14.902 14.902 0 0 1 10.61 4.397A14.907 14.907 0 0 1 35 20.005C34.996 28.273 28.268 35 19.995 35z"></path><path fill="#fff" d="M28.085 24.186c-.443-.221-2.621-1.293-3.026-1.44-.406-.148-.702-.221-.997.221-.295.443-1.144 1.44-1.402 1.735-.258.295-.516.332-.96.111s-1.87-.69-3.561-2.198c-1.317-1.173-2.206-2.624-2.464-3.067s-.028-.682.194-.903c.199-.199.443-.518.664-.776.221-.258.295-.443.443-.739.148-.295.074-.555-.037-.776-.111-.221-.997-2.401-1.366-3.287-.359-.863-.725-.746-.997-.759a17.547 17.547 0 0 0-.848-.015c-.295 0-.776.111-1.181.555S11 14.363 11 16.542s1.587 4.285 1.808 4.58c.221.295 3.122 4.767 7.566 6.685 1.056.455 1.882.728 2.524.933 1.061.337 2.026.289 2.79.175.851-.128 2.621-1.071 2.989-2.105.369-1.034.369-1.921.258-2.105-.111-.186-.406-.298-.85-.519z"></path></symbol><symbol viewBox="0 0 14.451 14.453" id="icon-inst"><path d="M11.658.001H2.792A2.8 2.8 0 0 0-.001 2.794v8.866a2.8 2.8 0 0 0 2.793 2.793h8.866a2.8 2.8 0 0 0 2.793-2.793V2.793A2.8 2.8 0 0 0 11.658.001zm.8 1.665h.32v2.45l-2.441.008-.008-2.454zm-7.3 4.077a2.539 2.539 0 1 1-.478 1.484 2.543 2.543 0 0 1 .482-1.484zm7.88 5.916a1.386 1.386 0 0 1-1.385 1.385H2.792a1.386 1.386 0 0 1-1.385-1.384V5.743h2.157a3.952 3.952 0 1 0 7.321 0h2.158z" fill="#232323"></path></symbol><symbol viewBox="0 0 19.231 20" id="icon-invoice"><path d="M.769 0A.77.77 0 0 0 0 .769v16.154A3.077 3.077 0 0 0 3.077 20h13.077a3.077 3.077 0 0 0 3.077-3.077V6.154a.77.77 0 0 0-.769-.769h-1.539v11.538a.769.769 0 1 1-1.538 0V.769a.77.77 0 0 0-.77-.769zm1.539 3.077h10.769v2.308H2.308zm0 5.385h4.615V10H2.308zm6.154 0h4.615V10H8.462zm-6.154 3.076h4.615v1.538H2.308zm6.154 0h4.615v1.538H8.462zm-6.154 3.077h4.615v1.538H2.308zm6.154 0h4.615v1.538H8.462z" fill="#9fa6b2"></path></symbol><symbol viewBox="0 0 21.045 25.429" id="icon-lk-login"><g data-name="Group 16" fill="#9fa6b2"><path data-name="Path 19" d="M4.586 0v4.762h1.846V1.849h12.765V23.58H6.432v-2.913H4.586v4.762h16.46V0z"></path><path data-name="Path 20" d="M8.886 18.578l7.858-5.864-7.858-5.863v3.691H0v4.352h8.886z"></path></g></symbol><symbol viewBox="0 0 19 19" id="icon-lk"><g data-name="Group 191" transform="translate(-618 -620)" fill="none" stroke="#000"><circle data-name="Ellipse 73" cx="9" cy="9" r="9" transform="translate(618.5 620.5)" stroke-miterlimit="10"></circle><circle data-name="Ellipse 74" cx="3" cy="3" r="3" transform="translate(624.5 624.192)" stroke-miterlimit="10"></circle><path data-name="Path 1362" d="M622.654 636.885v-.985a3.4 3.4 0 0 1 3.4-3.4h2.888a3.4 3.4 0 0 1 3.4 3.4v.983" stroke-linecap="round" stroke-linejoin="round"></path></g></symbol><symbol viewBox="0 0 15.364 14.891" id="icon-loading"><g fill="#9fa6b2"><path data-name="Path 38" d="M.738 7.644a.738.738 0 0 0 .738-.738 5.465 5.465 0 0 1 5.614-5.43 6.141 6.141 0 0 1 5.4 2.552L10.7 5.51a.083.083 0 0 0-.02.1.1.1 0 0 0 .083.065l4.131.384a.073.073 0 0 0 .082-.068l.387-4.13a.1.1 0 0 0-.048-.094.083.083 0 0 0-.1 0l-1.6 1.323A7.533 7.533 0 0 0 7.09-.004 6.925 6.925 0 0 0 0 6.902a.739.739 0 0 0 .738.742z"></path><path data-name="Path 39" d="M14.6 7.369h-.014a.738.738 0 0 0-.738.724 5.307 5.307 0 0 1-1.707 3.835 5.719 5.719 0 0 1-4.006 1.487 6.091 6.091 0 0 1-5.238-2.52l1.878-1.5a.083.083 0 0 0 .022-.1.1.1 0 0 0-.082-.067L.592 8.766a.073.073 0 0 0-.086.077l-.075.663a.737.737 0 0 0-.036.32l-.355 3.14a.1.1 0 0 0 .047.095.083.083 0 0 0 .1 0l1.557-1.242a7.484 7.484 0 0 0 6.363 3.077h.146a7.162 7.162 0 0 0 4.892-1.88 6.77 6.77 0 0 0 2.181-4.891.738.738 0 0 0-.726-.756z"></path></g></symbol><symbol viewBox="0 0 126 48" id="icon-logo-white"><path d="M18.435 11.236a12.12 12.12 0 0 0 .202-2.958 6.561 6.561 0 0 0-.586-2.432 4.193 4.193 0 0 0-1.287-1.64 3.1 3.1 0 0 0-1.892-.583c-1.091 0-2.154.348-3.034.995A9.976 9.976 0 0 0 9.361 7.22a16.602 16.602 0 0 0-1.81 3.692 21.522 21.522 0 0 0-1.021 4.304 28.64 28.64 0 0 0-.259 3.661c-.029 1.226.118 2.45.436 3.635a6.294 6.294 0 0 0 1.524 2.754 3.96 3.96 0 0 0 2.976 1.083 4.77 4.77 0 0 0 2.953-1.374 13.038 13.038 0 0 0 2.826-3.547l1.45-10.192zm105.061-6.27c.498-2.104 1.255-2.73 2.504-3.071l-.038-1.888a6.093 6.093 0 0 0-5.002 2.217 8.158 8.158 0 0 0-1.028-.478 9.748 9.748 0 0 0-3.589-.589 10.501 10.501 0 0 0-6.509 2.255 9.657 9.657 0 0 0-2.276 2.577 8.366 8.366 0 0 0-1.136 3.313 5.659 5.659 0 0 0 1.022 4.4 11.385 11.385 0 0 0 4.113 3.103c1.16.558 2.302 1.039 3.387 1.52a6.72 6.72 0 0 1 2.358 1.672 3.52 3.52 0 0 1 .556 2.901 5.645 5.645 0 0 1-1.691 3.426 4.603 4.603 0 0 1-3.267 1.317 3.96 3.96 0 0 1-3.059-.994 3.28 3.28 0 0 1-.674-2.755 6.532 6.532 0 0 1 .933-2.635l-.286-.703a4.235 4.235 0 0 0-2.095-.058 5.49 5.49 0 0 0-1.779.76 4.528 4.528 0 0 0-1.311 1.35 4.49 4.49 0 0 0-.492 1.026 7.29 7.29 0 0 1-2.269 2.38c-.927.608-1.98.997-3.08 1.135a9.309 9.309 0 0 0 3.104-5.884 5.463 5.463 0 0 0-1.167-4.541 12.245 12.245 0 0 0-4.143-2.958c-.694-.323-1.47-.614-2.303-.905a10.055 10.055 0 0 1-2.012-.906 4.223 4.223 0 0 1-1.722-1.875 5.159 5.159 0 0 1-.145-2.754 4.907 4.907 0 0 1 1.37-2.692A3.634 3.634 0 0 1 94.48 3.46a3.287 3.287 0 0 1 2.567.849 2.826 2.826 0 0 1 .524 2.375 9.907 9.907 0 0 1-1.048 3.167l.114.582a4.974 4.974 0 0 0 4.112-.383 3.949 3.949 0 0 0 1.778-2.723 4.567 4.567 0 0 0-.233-2.083 4.922 4.922 0 0 0-1.256-1.988 6.9 6.9 0 0 0-2.39-1.495 9.752 9.752 0 0 0-3.59-.59 10.5 10.5 0 0 0-6.503 2.255 9.647 9.647 0 0 0-2.276 2.578 8.374 8.374 0 0 0-1.136 3.312 5.683 5.683 0 0 0 1.022 4.4 11.382 11.382 0 0 0 4.112 3.103c1.16.557 2.303 1.038 3.381 1.52.899.38 1.705.95 2.365 1.671a3.52 3.52 0 0 1 .556 2.901 5.638 5.638 0 0 1-1.691 3.427 4.602 4.602 0 0 1-3.267 1.317 3.984 3.984 0 0 1-3.066-.995 3.291 3.291 0 0 1-.666-2.755 6.538 6.538 0 0 1 .933-2.635l-.286-.703a4.237 4.237 0 0 0-2.095-.057 5.481 5.481 0 0 0-1.779.76c-.528.35-.975.81-1.311 1.349-.34.51-.56 1.09-.643 1.698a4.645 4.645 0 0 0 .176 1.932l.012.038a6.628 6.628 0 0 1-3.443 1.311l-.101.05a2.471 2.471 0 0 1-.902-.347 1.722 1.722 0 0 1-.643-.906 5.671 5.671 0 0 1-.202-1.73c.08-2.396.314-4.784.7-7.15.1-.703.252-1.57.41-2.61.157-1.038.322-2.09.498-3.166.176-1.077.346-2.128.524-3.157.177-1.028.327-1.906.435-2.609.078-.484.126-.973.145-1.463a3.431 3.431 0 0 0-.177-1.293 2.321 2.321 0 0 0-.788-1.052 2.572 2.572 0 0 0-1.634-.703h-1.867l-.933.88a814.188 814.188 0 0 1-1.343 9.55c-.467 3.205-.915 6.391-1.343 9.551a13.25 13.25 0 0 1-2.946 3.635 5.04 5.04 0 0 1-3.058 1.463 2.48 2.48 0 0 1-1.59-.382 2.497 2.497 0 0 1-1.009-1.29 10.407 10.407 0 0 1-.498-4.072c.038-.78.145-1.844.322-3.192.176-1.349.38-2.784.611-4.304.233-1.527.467-3.011.7-4.453.234-1.444.417-2.66.587-3.634.063-.394.133-.817.176-1.293a2.533 2.533 0 0 0-.233-1.317 2.304 2.304 0 0 0-1.11-1.026 5.856 5.856 0 0 0-2.51-.411h-.586a5.807 5.807 0 0 0-.877.089 49.04 49.04 0 0 1-1.576.202c-.662.077-1.558.216-2.687.412l-.176 1.292c.71.11 1.411.277 2.095.5.433.132.824.374 1.136.703.254.297.406.668.435 1.058.035.499.015 1-.057 1.495a3528.215 3528.215 0 0 1-1.923 14.117 14.428 14.428 0 0 0-.133 2.07c-.391 2.426-3.81 4.496-5.777 4.496a3.326 3.326 0 0 1-1.199-.437 1.895 1.895 0 0 1-.731-.937 5.235 5.235 0 0 1-.233-1.786c.038-.861.113-1.945.233-3.252.12-1.308.309-2.92.587-4.832l.788-5.77c.217-1.579.41-2.925.58-4.04.177-1.114.342-2.02.499-2.723.157-.703.308-1.312.466-1.818l-1.633-.823-3.444 2.166a5.405 5.405 0 0 0-2.687-1.76 11.838 11.838 0 0 0-3.09-.412 11.189 11.189 0 0 0-5.11 1.23c-1.628.83-3.098 1.94-4.345 3.28a19.198 19.198 0 0 0-3.238 4.743 21.225 21.225 0 0 0-1.836 5.68 22.417 22.417 0 0 0-.145 4.985c.11 1.53.495 3.028 1.136 4.42a7.907 7.907 0 0 0 2.655 3.157 7.556 7.556 0 0 0 4.409 1.204 11.746 11.746 0 0 0 3.936-.76 9.87 9.87 0 0 0 4.169-3.282h.12c.003.454.052.905.145 1.35.098.47.287.918.555 1.316.275.414.645.755 1.078.995a3.47 3.47 0 0 0 1.723.383h.643c.088 0 .195-.007.322-.013a13.61 13.61 0 0 0 5.102-.69 10.87 10.87 0 0 0 4.68-3.39c.145.488.343.957.593 1.4a5.207 5.207 0 0 0 1.955 1.964 6.22 6.22 0 0 0 3.179.727 11.767 11.767 0 0 0 3.936-.76 9.92 9.92 0 0 0 4.175-3.28h.113c.004.453.052.904.145 1.348.098.471.287.918.555 1.317.275.414.645.755 1.079.995a3.47 3.47 0 0 0 1.722.383h.643c.082 0 .17-.007.271-.013a13.384 13.384 0 0 0 4.7-.64l.276-.05.007-.051c.938-.366 1.821-.86 2.624-1.47.12.134.248.262.381.383a6.879 6.879 0 0 0 2.391 1.317c1.227.381 2.507.559 3.79.526a17.254 17.254 0 0 0 4.037-.437h.133a16.462 16.462 0 0 0 5.746-.703 11.116 11.116 0 0 0 3.992-2.597c.006.032.019.07.025.102a3.88 3.88 0 0 0 1.167 1.786 6.94 6.94 0 0 0 2.391 1.317c1.227.38 2.507.558 3.791.526 3.425 0 6.129-.782 8.111-2.344a9.313 9.313 0 0 0 3.53-6.283 5.463 5.463 0 0 0-1.167-4.541 12.235 12.235 0 0 0-4.143-2.958c-.694-.323-1.47-.614-2.302-.905a9.898 9.898 0 0 1-2.012-.906 4.185 4.185 0 0 1-1.722-1.875 5.15 5.15 0 0 1-.145-2.755 4.877 4.877 0 0 1 1.375-2.691 3.627 3.627 0 0 1 2.712-1.172 3.275 3.275 0 0 1 2.567.848 2.1 2.1 0 0 1 .392.646 5.344 5.344 0 0 0-1.078 2.296c-.234 1.393-.309 3.14 1.57 3.375a4.242 4.242 0 0 0 2.813-.582 3.961 3.961 0 0 0 1.779-2.723 4.581 4.581 0 0 0-.234-2.084 1.833 1.833 0 0 0-.095-.259l.044.004zm-78.052 5.791c-.404 3.566-1.048 7.132-1.552 10.679a13.03 13.03 0 0 1-2.832 3.546 4.721 4.721 0 0 1-2.945 1.375 3.957 3.957 0 0 1-2.977-1.083 6.357 6.357 0 0 1-1.524-2.755 12.857 12.857 0 0 1-.435-3.634c.013-1.225.101-2.447.265-3.66a21.52 21.52 0 0 1 1.022-4.305 16.335 16.335 0 0 1 1.81-3.692 9.782 9.782 0 0 1 2.476-2.603 5.117 5.117 0 0 1 3.034-.994 3.118 3.118 0 0 1 1.899.582 4.31 4.31 0 0 1 1.286 1.64c.348.766.545 1.592.58 2.433.02.278.025.574.02.867-.013.539-.07 1.077-.133 1.61l.006-.006zM16.21 25.835a10.087 10.087 0 0 1-4.087 3.281c-1.227.481-2.53.739-3.847.76a7.51 7.51 0 0 1-4.409-1.203 7.951 7.951 0 0 1-2.656-3.156 12.526 12.526 0 0 1-1.135-4.421 22.426 22.426 0 0 1 .145-4.984c.346-1.97.964-3.882 1.835-5.68a19.03 19.03 0 0 1 3.239-4.745 15.627 15.627 0 0 1 4.346-3.28 11.09 11.09 0 0 1 5.108-1.23c1.044 0 2.083.139 3.091.411a5.416 5.416 0 0 1 2.687 1.761l.681.152C23.214 1.354 24.211.058 27.377.044l.038 1.887c-1.249.342-2.012.962-2.504 3.071l-.032.165a75.3 75.3 0 0 0-.618 3.515c-.197 1.285-.401 2.759-.611 4.42-.215 1.659-.459 3.641-.732 5.948a309.99 309.99 0 0 1-1.489 10.488 70.01 70.01 0 0 1-1.665 7.822 25.869 25.869 0 0 1-2.157 5.51 10.748 10.748 0 0 1-2.977 3.49 8.235 8.235 0 0 1-2.8 1.292c-.957.231-1.937.348-2.921.348a11.265 11.265 0 0 1-2.19-.234 9.234 9.234 0 0 1-2.221-.728c-.26-.126-.511-.27-.75-.43a4.077 4.077 0 0 1-2.163-2.493 4.108 4.108 0 0 1 .377-3.284c.895-1.469 3.204-.975 4.138-.798l1.457 1.59a7.594 7.594 0 0 0-.353 2.166c-.03.5.082.997.322 1.435a1.326 1.326 0 0 0 .82.614c.369.078.751.058 1.11-.057a4.02 4.02 0 0 0 1.255-.646c1.596-1.211 2.803-3.358 3.62-6.44a81.65 81.65 0 0 0 1.987-12.832h-.113l.005-.028z" fill="#fff"></path></symbol><symbol viewBox="0 0 132.271 50.164" id="icon-logo"><path data-name="Path 1" d="M19.348 11.739a12.623 12.623 0 0 0 .212-3.092 6.837 6.837 0 0 0-.616-2.543 4.387 4.387 0 0 0-1.351-1.715 3.264 3.264 0 0 0-1.986-.609 5.385 5.385 0 0 0-3.185 1.04 10.449 10.449 0 0 0-2.6 2.721 17.327 17.327 0 0 0-1.9 3.86 22.424 22.424 0 0 0-1.073 4.5 29.822 29.822 0 0 0-.271 3.827 13.389 13.389 0 0 0 .457 3.8 6.573 6.573 0 0 0 1.6 2.88 4.159 4.159 0 0 0 3.125 1.132 5.016 5.016 0 0 0 3.1-1.437 13.641 13.641 0 0 0 2.966-3.708zm110.294-6.555c.523-2.2 1.318-2.854 2.629-3.211L132.231 0a6.4 6.4 0 0 0-5.251 2.318 8.575 8.575 0 0 0-1.079-.5 10.276 10.276 0 0 0-3.768-.616 11.052 11.052 0 0 0-6.833 2.357 10.1 10.1 0 0 0-2.39 2.695 8.73 8.73 0 0 0-1.192 3.463 5.89 5.89 0 0 0 1.073 4.6 11.945 11.945 0 0 0 4.317 3.245c1.218.583 2.417 1.086 3.556 1.589a7.055 7.055 0 0 1 2.476 1.748 3.67 3.67 0 0 1 .583 3.033 5.885 5.885 0 0 1-1.775 3.582 4.842 4.842 0 0 1-3.43 1.377 4.175 4.175 0 0 1-3.211-1.04 3.414 3.414 0 0 1-.708-2.88 6.82 6.82 0 0 1 .98-2.755l-.3-.735a4.466 4.466 0 0 0-2.2-.06 5.766 5.766 0 0 0-1.867.795 4.745 4.745 0 0 0-1.377 1.41 4.687 4.687 0 0 0-.516 1.073 7.633 7.633 0 0 1-5.615 3.675 9.719 9.719 0 0 0 3.258-6.151 5.689 5.689 0 0 0-1.225-4.748 12.854 12.854 0 0 0-4.35-3.092c-.728-.338-1.543-.642-2.417-.947a10.575 10.575 0 0 1-2.112-.947 4.422 4.422 0 0 1-1.808-1.96 5.371 5.371 0 0 1-.152-2.88 5.123 5.123 0 0 1 1.437-2.814 3.815 3.815 0 0 1 2.847-1.225 3.464 3.464 0 0 1 2.695.887 2.948 2.948 0 0 1 .55 2.483 10.325 10.325 0 0 1-1.1 3.311l.119.609a5.243 5.243 0 0 0 4.317-.4 4.135 4.135 0 0 0 1.867-2.847 4.761 4.761 0 0 0-.245-2.178 5.153 5.153 0 0 0-1.318-2.079 7.253 7.253 0 0 0-2.51-1.563 10.276 10.276 0 0 0-3.768-.616 11.052 11.052 0 0 0-6.827 2.357 10.1 10.1 0 0 0-2.39 2.695 8.731 8.731 0 0 0-1.192 3.463 5.917 5.917 0 0 0 1.073 4.6 11.945 11.945 0 0 0 4.317 3.244c1.218.583 2.417 1.086 3.549 1.589a7.147 7.147 0 0 1 2.483 1.748 3.67 3.67 0 0 1 .583 3.033 5.885 5.885 0 0 1-1.775 3.582 4.842 4.842 0 0 1-3.43 1.377 4.2 4.2 0 0 1-3.218-1.04 3.435 3.435 0 0 1-.7-2.88 6.818 6.818 0 0 1 .98-2.755l-.3-.735a4.466 4.466 0 0 0-2.2-.06 5.766 5.766 0 0 0-1.867.795 4.667 4.667 0 0 0-1.377 1.41 4.246 4.246 0 0 0-.675 1.775 4.836 4.836 0 0 0 .185 2.02l.013.04a6.975 6.975 0 0 1-3.615 1.371l-.106.053a2.6 2.6 0 0 1-.947-.364 1.8 1.8 0 0 1-.675-.947 5.905 5.905 0 0 1-.212-1.808 58.5 58.5 0 0 1 .735-7.476c.106-.735.265-1.642.43-2.728s.338-2.185.523-3.311.364-2.225.55-3.3.344-1.993.457-2.728a12.716 12.716 0 0 0 .152-1.53 3.574 3.574 0 0 0-.185-1.351 2.427 2.427 0 0 0-.828-1.1 2.706 2.706 0 0 0-1.715-.735h-1.96l-.98.92c-.444 3.311-.92 6.635-1.41 9.985s-.96 6.681-1.41 9.985a13.864 13.864 0 0 1-3.092 3.8 5.3 5.3 0 0 1-3.211 1.53 2.612 2.612 0 0 1-2.728-1.748 10.837 10.837 0 0 1-.523-4.258q.06-1.222.338-3.337t.642-4.5q.367-2.394.735-4.655c.245-1.51.437-2.781.616-3.8.066-.411.139-.854.185-1.351a2.638 2.638 0 0 0-.245-1.377 2.415 2.415 0 0 0-1.165-1.073 6.17 6.17 0 0 0-2.635-.43h-.616a6.122 6.122 0 0 0-.92.093c-.4.06-.96.132-1.655.212s-1.635.225-2.821.43l-.185 1.351a13.985 13.985 0 0 1 2.2.523 2.743 2.743 0 0 1 1.192.735 1.91 1.91 0 0 1 .457 1.106 7.236 7.236 0 0 1-.06 1.563q-.487 3.615-1.006 7.409c-.344 2.536-.682 4.979-1.013 7.35a15.039 15.039 0 0 0-.139 2.165c-.411 2.536-4 4.7-6.065 4.7a3.5 3.5 0 0 1-1.258-.457 1.982 1.982 0 0 1-.768-.98 5.451 5.451 0 0 1-.245-1.867c.04-.9.119-2.033.245-3.4s.324-3.052.616-5.052q.487-3.556.828-6.032t.609-4.224c.185-1.165.358-2.112.523-2.847s.324-1.371.49-1.9l-1.715-.861-3.615 2.265A5.676 5.676 0 0 0 47 1.653a12.475 12.475 0 0 0-3.245-.43 11.786 11.786 0 0 0-5.363 1.285 16.4 16.4 0 0 0-4.562 3.43 20.069 20.069 0 0 0-3.4 4.959 22.125 22.125 0 0 0-1.927 5.939 23.341 23.341 0 0 0-.152 5.211 13.3 13.3 0 0 0 1.192 4.622 8.276 8.276 0 0 0 2.788 3.3 7.957 7.957 0 0 0 4.628 1.258 12.373 12.373 0 0 0 4.132-.795 10.354 10.354 0 0 0 4.377-3.43h.126a7.111 7.111 0 0 0 .152 1.41 3.879 3.879 0 0 0 .583 1.377 3.231 3.231 0 0 0 1.132 1.04 3.655 3.655 0 0 0 1.808.4h.675c.093 0 .205-.007.338-.013a14.341 14.341 0 0 0 5.357-.722 11.409 11.409 0 0 0 4.913-3.543 7.051 7.051 0 0 0 .622 1.463 5.455 5.455 0 0 0 2.053 2.053 6.552 6.552 0 0 0 3.337.761 12.4 12.4 0 0 0 4.132-.795 10.408 10.408 0 0 0 4.383-3.43h.119a7.111 7.111 0 0 0 .152 1.41 3.879 3.879 0 0 0 .583 1.377 3.231 3.231 0 0 0 1.132 1.04 3.655 3.655 0 0 0 1.808.4h.675c.086 0 .179-.007.285-.013a14.106 14.106 0 0 0 4.933-.669l.291-.053.007-.053a11.488 11.488 0 0 0 2.755-1.536 5.618 5.618 0 0 0 .4.4 7.23 7.23 0 0 0 2.51 1.377 12.4 12.4 0 0 0 3.979.55 18.191 18.191 0 0 0 4.238-.457h.139a17.344 17.344 0 0 0 6.032-.735 11.662 11.662 0 0 0 4.191-2.715c.007.033.02.073.027.106a4.055 4.055 0 0 0 1.225 1.867 7.29 7.29 0 0 0 2.51 1.377 12.43 12.43 0 0 0 3.98.55q5.393 0 8.515-2.45a9.718 9.718 0 0 0 3.706-6.569 5.689 5.689 0 0 0-1.225-4.748 12.856 12.856 0 0 0-4.35-3.092c-.728-.338-1.543-.642-2.417-.947a10.405 10.405 0 0 1-2.112-.947 4.384 4.384 0 0 1-1.808-1.96 5.372 5.372 0 0 1-.152-2.88 5.09 5.09 0 0 1 1.444-2.814 3.815 3.815 0 0 1 2.847-1.225 3.455 3.455 0 0 1 2.695.887 2.2 2.2 0 0 1 .411.675 5.592 5.592 0 0 0-1.132 2.4c-.245 1.457-.324 3.284 1.649 3.529a4.469 4.469 0 0 0 2.953-.609 4.135 4.135 0 0 0 1.867-2.847 4.761 4.761 0 0 0-.245-2.178 1.9 1.9 0 0 0-.1-.271zm-81.94 6.055c-.424 3.728-1.1 7.456-1.629 11.164a13.634 13.634 0 0 1-2.973 3.708 4.965 4.965 0 0 1-3.092 1.437 4.169 4.169 0 0 1-3.125-1.132 6.64 6.64 0 0 1-1.6-2.88 13.39 13.39 0 0 1-.457-3.8 30.92 30.92 0 0 1 .278-3.827 22.428 22.428 0 0 1 1.073-4.5 17.048 17.048 0 0 1 1.9-3.86 10.246 10.246 0 0 1 2.6-2.721 5.386 5.386 0 0 1 3.185-1.04 3.283 3.283 0 0 1 1.993.609 4.51 4.51 0 0 1 1.351 1.715 6.837 6.837 0 0 1 .609 2.543c.02.291.026.6.02.907a17.792 17.792 0 0 1-.139 1.682M17.012 27.003a10.581 10.581 0 0 1-4.291 3.43 11.645 11.645 0 0 1-4.039.795 7.909 7.909 0 0 1-4.628-1.258 8.321 8.321 0 0 1-2.788-3.3 13.053 13.053 0 0 1-1.192-4.622 23.351 23.351 0 0 1 .152-5.211 22.523 22.523 0 0 1 1.927-5.939 19.892 19.892 0 0 1 3.4-4.96 16.4 16.4 0 0 1 4.562-3.43 11.682 11.682 0 0 1 5.363-1.285 12.476 12.476 0 0 1 3.245.43 5.688 5.688 0 0 1 2.821 1.841l.715.159c2.106-2.245 3.152-3.6 6.476-3.615l.04 1.973c-1.311.358-2.112 1.006-2.629 3.211l-.033.172q-.338 1.659-.649 3.675t-.642 4.622q-.338 2.6-.768 6.218-.795 6.247-1.563 10.965a72.934 72.934 0 0 1-1.748 8.178 26.982 26.982 0 0 1-2.265 5.761 11.251 11.251 0 0 1-3.125 3.648 8.662 8.662 0 0 1-2.94 1.351 13.1 13.1 0 0 1-3.066.364 11.872 11.872 0 0 1-2.3-.245 9.72 9.72 0 0 1-2.331-.761 6.429 6.429 0 0 1-.788-.45 4.278 4.278 0 0 1-1.874-6.039c.94-1.536 3.364-1.02 4.344-.834l1.53 1.662a7.909 7.909 0 0 0-.371 2.265 2.777 2.777 0 0 0 .338 1.5 1.389 1.389 0 0 0 .861.642 2.291 2.291 0 0 0 1.165-.06 4.229 4.229 0 0 0 1.318-.675q2.513-1.9 3.8-6.734a85.047 85.047 0 0 0 2.086-13.415h-.119z" fill="#232323"></path></symbol><symbol viewBox="0 0 12 20" id="icon-ok"><path fill-rule="evenodd" clip-rule="evenodd" d="M6.5 10C3.467 10 1 7.758 1 5c0-2.757 2.467-5 5.5-5C9.534 0 12 2.243 12 5c0 2.758-2.466 5-5.5 5zm0-7.07c1.256 0 2.277.929 2.277 2.07 0 1.142-1.021 2.07-2.277 2.07-1.255 0-2.277-.928-2.277-2.07 0-1.141 1.022-2.07 2.277-2.07zm4.652 14.353l-2.989-3.037a9.931 9.931 0 0 0 3.105-1.306 1.607 1.607 0 0 0 .491-2.194 1.55 1.55 0 0 0-2.16-.501 6.697 6.697 0 0 1-7.198 0 1.55 1.55 0 0 0-2.16.5 1.606 1.606 0 0 0 .49 2.195 9.944 9.944 0 0 0 3.105 1.306L.847 17.283a1.61 1.61 0 0 0 0 2.25 1.55 1.55 0 0 0 2.216 0L6 16.55l2.94 2.985a1.548 1.548 0 0 0 2.213 0 1.608 1.608 0 0 0 0-2.25z" fill="#000"></path></symbol><symbol viewBox="0 0 32 32" id="icon-pdf"><path d="M21 13v-3l-6-7H4.003A2.005 2.005 0 0 0 2 5.007v22.986A2 2 0 0 0 3.997 30h15.006A1.999 1.999 0 0 0 21 28.01V26h7.993A3.003 3.003 0 0 0 32 23.001V16A2.996 2.996 0 0 0 28.993 13H21zm-1 13v2.007A.997.997 0 0 1 19 29H4c-.545 0-1-.446-1-.995V4.995c0-.54.446-.995.996-.995H14v4.994c0 1.12.894 2.006 1.998 2.006H20v2h-7.993A3.003 3.003 0 0 0 9 15.999V23A2.996 2.996 0 0 0 12.007 26H20zM15 4.5v4.491c0 .557.45 1.009.997 1.009H19.7L15 4.5zM11.995 14C10.893 14 10 14.9 10 15.992v7.016A2 2 0 0 0 11.995 25h17.01C30.107 25 31 24.1 31 23.008v-7.016A2 2 0 0 0 29.005 14h-17.01zM25 19v-2h4v-1h-5v7h1v-3h3v-1h-3zm-13-1v5h1v-3h1.995a2 2 0 0 0 0-4H12v2zm1-1v2h2.001A.997.997 0 0 0 16 18c0-.552-.443-1-.999-1H13zm5-1v7h2.995A1.998 1.998 0 0 0 23 20.994v-2.988A2.003 2.003 0 0 0 20.995 16H18zm1 1v5h2.001A.997.997 0 0 0 22 21v-3c0-.552-.443-1-.999-1H19z" fill="#000" fill-rule="evenodd"></path></symbol><symbol viewBox="0 0 350 350" id="icon-pdf2"><g stroke-miterlimit="10" fill="none"><path d="M41.6 285.705v44.759c0 9.756 7.936 17.692 17.692 17.692h227.631c9.756 0 17.692-7.936 17.692-17.692V77.785c0-4.722-1.84-9.165-5.182-12.51L237.392 3.237a17.575 17.575 0 0 0-12.51-5.181H59.291C49.536-1.944 41.6 5.99 41.6 15.747V285.705z" fill="#dcdfe1"></path><path d="M41.6 242.02v88.444c0 9.756 7.936 17.692 17.692 17.692h227.631c9.756 0 17.692-7.936 17.692-17.692V242.02H41.6z" fill="#ea5440"></path><path fill="#c4cbd2" d="M232.506 69.67l72.12 71.849-.31-66.714z"></path><path d="M299.43 65.275L237.391 3.237c-2.626-2.63-5.948-4.287-9.542-4.894V58.18c0 9.173 7.464 16.638 16.637 16.638h59.836c-.607-3.59-2.264-6.913-4.894-9.542z" fill="#abb2b8"></path><path d="M108.47 208.166c-3.793 0-6.29-2.027-7.66-3.606l-.595-.922c-2.844-6.173-4.085-15.848 6.165-26.856 8.523-9.15 23.138-17.128 39.78-23.24 5.963-11.082 11.541-22.977 16-34.329-10.64-17.489-15.082-35.88-10.698-47.928 2.326-6.395 7.138-10.418 13.552-11.332l.549-.039c7.01 0 11.849 4.046 13.634 11.386 2.502 10.305-1.326 27.83-8.422 46.949a106.17 106.17 0 0 0 9.803 12.716 131.226 131.226 0 0 0 10.6 11.37c17.965-2.489 34.283-2.256 44.257 1.51 10.153 3.832 12.444 10.262 12.58 14.984v.078c.05 6.142-3.007 10.79-8.394 12.755-10.834 3.956-31.249-3.174-51.173-21.2-12.149 1.93-24.97 5.115-36.82 9.262-12.4 22.504-26.393 41.409-36.468 46.61-2.571 1.323-4.792 1.832-6.69 1.832zm-1.432-8.336c.622.548 1.781 1.015 4.551-.409 7.605-3.925 18.287-17.804 28.576-35.24-11.794 5.097-21.83 11.18-28.094 17.903-5.765 6.193-7.418 12.008-5.033 17.746zm91.87-50.737c16.318 13.023 31.497 17.652 38.036 15.26 1.54-.564 3.307-1.68 3.287-5.349-.039-1.31-.225-5.119-7.546-7.88-7.73-2.914-19.936-3.432-33.777-2.031zm-31.556-22.1a318.787 318.787 0 0 1-10.569 22.979 227.377 227.377 0 0 1 24.884-6.096 143.084 143.084 0 0 1-6.982-7.83 113.22 113.22 0 0 1-7.333-9.053zm-1.513-59.29c-3.43.57-5.745 2.617-7.064 6.243-2.797 7.682-.564 21.212 6.928 35.66 5.212-15.18 7.85-28.55 5.928-36.466-1.116-4.602-3.42-5.387-5.792-5.438z" fill="#ea5440"></path><path d="M126.783 264.797H109.77a3.889 3.889 0 0 0-3.89 3.89v53.028c0 2.151 1.742 3.89 3.89 3.89s3.89-1.739 3.89-3.89v-17.664h13.124c8.236 0 14.93-6.699 14.93-14.93v-9.394c0-8.232-6.698-14.93-14.93-14.93zm7.15 24.324c0 3.944-3.209 7.15-7.15 7.15H113.66v-23.694h13.124a7.155 7.155 0 0 1 7.15 7.15v9.394zM174.47 325.605h-15.874a3.889 3.889 0 0 1-3.89-3.89v-53.028a3.889 3.889 0 0 1 3.89-3.89h15.879c8.861 0 16.066 7.208 16.066 16.065v28.674c-.004 8.861-7.209 16.07-16.07 16.07zm-11.984-7.78h11.989c4.567 0 8.286-3.719 8.286-8.29v-28.673c0-4.57-3.72-8.285-8.286-8.285h-11.99v45.248zM236.443 264.797h-28.055a3.886 3.886 0 0 0-3.89 3.89v53.028c0 2.151 1.739 3.89 3.89 3.89s3.89-1.739 3.89-3.89v-22.624h14.482c2.151 0 3.89-1.739 3.89-3.89s-1.739-3.89-3.89-3.89h-14.482v-18.73h24.165c2.15 0 3.89-1.74 3.89-3.89s-1.74-3.894-3.89-3.894z" fill="#fff"></path></g></symbol><symbol viewBox="0 0 80 80" id="icon-play"><path d="M40 79.9C18 79.9.1 62 .1 40S18 .1 40 .1 79.9 18 79.9 40 62 79.9 40 79.9zM40 2C19 2 2 19 2 40s17 38 38 38 38-17 38-38S61 2 40 2z"></path><path d="M47.5 40.1l-9.3-9.3v18.6l9.3-9.3m2.8 0L36.1 54.3V26l14.2 14.1z"></path></symbol><symbol viewBox="0 0 15.94 18" id="icon-repeat"><path d="M13.95 10.859a6.012 6.012 0 0 1-7.231 5.005 5.992 5.992 0 0 1-4.581-4.571A5.878 5.878 0 0 1 7.992 4v2l5-3-5-3v2a7.974 7.974 0 0 0-7.834 9.6 7.973 7.973 0 0 0 6.244 6.239 8.014 8.014 0 0 0 9.529-6.718 1 1 0 0 0-1-1.126 1 1 0 0 0-.981.864z" fill="#a7aebb"></path></symbol><symbol viewBox="0 0 12.02 12.068" id="icon-rsa"><path d="M.002 6.414a5.564 5.564 0 0 1 3.972 1.651 5.628 5.628 0 0 1 1.647 4h2.313A7.958 7.958 0 0 0 .002 4.1v2.313zm0-4.1a9.739 9.739 0 0 1 9.7 9.755h2.318A12.055 12.055 0 0 0 .006 0v2.313zm3.2 8.139a1.6 1.6 0 1 1-1.6-1.6 1.6 1.6 0 0 1 1.602 1.599z" fill="#232323"></path></symbol><symbol viewBox="0 0 20 20" id="icon-save"><g data-name="Group 247" fill="none" stroke="#000" stroke-miterlimit="10"><path data-name="Path 1403" d="M5.5.5h14v19H.5v-15z"></path><path data-name="Rectangle 2490" d="M5.5 14.5h8v5h-8z"></path><path data-name="Path 1404" d="M5.5.887V5.5h8v-5h-8"></path><path data-name="Line 314" d="M7 2.5h1"></path></g></symbol><symbol viewBox="0 0 17.947 17.947" id="icon-search"><path data-name="Path 21" d="M7.228 0a7.228 7.228 0 1 0 4.549 12.838l4.891 4.891a.75.75 0 0 0 1.059 0 .741.741 0 0 0 0-1.051l-4.891-4.891A7.225 7.225 0 0 0 7.228.003zm0 1.5A5.733 5.733 0 1 1 1.5 7.228a5.721 5.721 0 0 1 5.733-5.733z" fill="#9fa6b2"></path></symbol><symbol viewBox="0 0 7.551 5.189" id="icon-show-more"><path data-name="Path 18" d="M.705.707l3.068 3.068L6.841.707" fill="none" stroke="#9fa6b2" stroke-width="2"></path></symbol><symbol viewBox="0 0 15.686 16.029" id="icon-storage"><path data-name="Path 14" d="M15.685 3.34a.52.52 0 0 0-.014-.116c0-.008-.005-.015-.007-.022a.517.517 0 0 0-.033-.086.354.354 0 0 0-.019-.033.5.5 0 0 0-.045-.065l-.025-.029a.515.515 0 0 0-.067-.059c-.006 0-.01-.01-.016-.015h-.006a.519.519 0 0 0-.1-.054L8.035.038a.525.525 0 0 0-.378 0L.345 2.859H.34a.535.535 0 0 0-.1.054H.234c-.006 0-.01.01-.016.014a.492.492 0 0 0-.068.06.347.347 0 0 0-.025.029.554.554 0 0 0-.046.066l-.019.033a.55.55 0 0 0-.033.086c0 .008-.006.014-.007.022a.519.519 0 0 0-.014.116v9.34a.525.525 0 0 0 .336.49l7.318 2.823c.016.006.032.009.048.013s.027.009.041.011a.5.5 0 0 0 .2 0c.014 0 .027-.008.041-.011s.032-.007.048-.013l7.318-2.823a.525.525 0 0 0 .336-.49V3.346v-.007zM7.843 5.607l-2.2-.849 5.859-2.26 2.2.849-5.859 2.26zm0-4.52l2.2.849-5.859 2.26-2.2-.849 5.859-2.26zM1.05 4.112l2.609 1.006v4.067a.525.525 0 0 0 1.05 0V5.524L7.318 6.53v8.207L1.05 12.319V4.112zm13.585 8.207l-6.267 2.418V6.53l6.267-2.418v8.207z" fill-rule="evenodd"></path></symbol><symbol viewBox="0 0 20 20" id="icon-t-doc"><path d="M14 0H0v20h20V6.105zm4 18H2V2h10v6h6zM4 10h12v2H4zm0 4h12v2H4z" fill="#0a0a0c"></path></symbol><symbol viewBox="0 0 7.07 19.441" id="icon-to-top"><g data-name="Group 18"><path class="fill" data-name="Path 23" d="M-.002 3.535L3.534 0 7.07 3.535z" fill="#0a0a0c"></path><path class="stroke" data-name="Line 31" fill="none" stroke="#0a0a0c" d="M3.411 2.441v17"></path></g></symbol><symbol viewBox="0 0 18 18" id="icon-tooltip-alert"><path class="background" data-name="Path 1341" d="M9 0a9 9 0 1 0 9 9 9 9 0 0 0-9-9zm1.874 13.948q-.695.274-1.109.418a2.925 2.925 0 0 1-.962.144 1.916 1.916 0 0 1-1.308-.41 1.325 1.325 0 0 1-.466-1.042 3.783 3.783 0 0 1 .034-.5 6.35 6.35 0 0 1 .112-.578l.58-2.048c.051-.2.1-.383.13-.557a2.47 2.47 0 0 0 .052-.482.743.743 0 0 0-.162-.546.918.918 0 0 0-.619-.153 1.626 1.626 0 0 0-.461.069 5.608 5.608 0 0 0-.4.134l.153-.631q.569-.232 1.09-.4a3.219 3.219 0 0 1 .98-.166 1.881 1.881 0 0 1 1.289.4 1.342 1.342 0 0 1 .453 1.048q0 .134-.031.47a3.146 3.146 0 0 1-.116.618l-.577 2.042a5.81 5.81 0 0 0-.127.561 2.965 2.965 0 0 0-.056.477.685.685 0 0 0 .182.555 1.019 1.019 0 0 0 .63.148 1.828 1.828 0 0 0 .477-.074 2.712 2.712 0 0 0 .386-.13zm-.1-8.288a1.377 1.377 0 0 1-.971.375 1.391 1.391 0 0 1-.975-.375 1.2 1.2 0 0 1-.406-.909 1.209 1.209 0 0 1 .406-.911 1.381 1.381 0 0 1 .972-.379 1.365 1.365 0 0 1 .971.379 1.227 1.227 0 0 1 0 1.82z" fill="#9fa6b2"></path></symbol><symbol viewBox="0 0 18 18" id="icon-tooltip-catalog"><path d="M9 0a9 9 0 1 0 9 9 9 9 0 0 0-9-9zm1.874 13.948q-.695.274-1.109.418a2.925 2.925 0 0 1-.962.144 1.916 1.916 0 0 1-1.308-.41 1.325 1.325 0 0 1-.466-1.042 3.783 3.783 0 0 1 .034-.5 6.35 6.35 0 0 1 .112-.578l.58-2.048c.051-.2.1-.383.13-.557a2.47 2.47 0 0 0 .052-.482.743.743 0 0 0-.162-.546.918.918 0 0 0-.619-.153 1.626 1.626 0 0 0-.461.069 5.608 5.608 0 0 0-.4.134l.153-.631q.569-.232 1.09-.4a3.219 3.219 0 0 1 .98-.166 1.881 1.881 0 0 1 1.289.4 1.342 1.342 0 0 1 .453 1.048q0 .134-.031.47a3.146 3.146 0 0 1-.116.618l-.577 2.042a5.81 5.81 0 0 0-.127.561 2.965 2.965 0 0 0-.056.477.685.685 0 0 0 .182.555 1.019 1.019 0 0 0 .63.148 1.828 1.828 0 0 0 .477-.074 2.712 2.712 0 0 0 .386-.13zm-.1-8.288a1.377 1.377 0 0 1-.971.375 1.391 1.391 0 0 1-.975-.375 1.2 1.2 0 0 1-.406-.909 1.209 1.209 0 0 1 .406-.911 1.381 1.381 0 0 1 .972-.379 1.365 1.365 0 0 1 .971.379 1.227 1.227 0 0 1 0 1.82z" fill="#f7971d"></path></symbol><symbol viewBox="0 0 20 20" id="icon-tooltip-question"><g data-name="Group 177" transform="translate(-1820 -111)"><circle class="background" data-name="Ellipse 16" cx="10" cy="10" r="10" transform="translate(1820 111)" fill="#e1e4e8"></circle><path class="text" data-name="Path 56" d="M1830.055 124.141c-.754 0-1 .117-1 .91 0 .858.247 1 1 1 .793 0 1.04-.143 1.04-1 .005-.793-.247-.91-1.04-.91zm.845-.941c1.339-1.256 2.171-2.387 2.171-3.856 0-1.742-.936-2.626-3.367-2.626a9.61 9.61 0 0 0-2.353.325l.349 1.508a5.452 5.452 0 0 1 1.859-.273c1.222 0 1.573.416 1.573 1.131 0 1.4-.637 2.418-1.924 3.8z" fill="#232323"></path></g></symbol><symbol viewBox="0 0 16.043 9.104" id="icon-vk"><path d="M15.414.4h-2.6a.588.588 0 0 0-.518.31s-1.038 1.912-1.372 2.556c-.9 1.733-1.478 1.189-1.478.385V.879a.874.874 0 0 0-.874-.874H6.611a1.568 1.568 0 0 0-1.385.643s.994-.161.994 1.179c0 .332.017 1.288.033 2.089a.577.577 0 0 1-1.007.4 17.044 17.044 0 0 1-1.977-3.6.548.548 0 0 0-.5-.319H.404a.4.4 0 0 0-.38.542c.719 1.974 3.81 8.167 7.345 8.167h1.486a.587.587 0 0 0 .587-.587v-.9a.577.577 0 0 1 .972-.421l1.779 1.672a.862.862 0 0 0 .59.234h2.336c1.127 0 1.127-.782.512-1.387-.432-.426-1.993-2.07-1.993-2.07a.806.806 0 0 1-.062-1.047c.5-.664 1.329-1.75 1.679-2.215.479-.637 1.346-1.985.159-1.985z" fill="#232323"></path></symbol><symbol viewBox="0 0 24 13" id="icon-watch"><path d="M12 13C5.6 13 .5 7.4.3 7.2c-.3-.4-.3-1 0-1.3C.5 5.7 5.6.1 12 .1c6.4 0 11.5 5.6 11.7 5.8.3.4.3 1 0 1.3-.2.2-5.3 5.8-11.7 5.8zM2.4 6.5C3.9 7.9 7.7 11 12 11s8.1-3.1 9.6-4.5C20.1 5.1 16.3 2 12 2S3.9 5.1 2.4 6.5z"></path><circle cx="411" cy="286" r="2" transform="translate(-399 -279.5)"></circle></symbol><symbol viewBox="0 0 41 29" id="icon-youtube-red"><path d="M39.713 4.99a5.011 5.011 0 0 0-3.525-3.526c-3.13-.856-15.65-.856-15.65-.856s-12.521 0-15.65.824A5.114 5.114 0 0 0 1.361 4.99a52.808 52.808 0 0 0-.824 9.621c-.02 3.224.256 6.442.824 9.616a5.012 5.012 0 0 0 3.527 3.531c3.162.857 15.65.857 15.65.857s12.521 0 15.651-.824a5.012 5.012 0 0 0 3.526-3.526c.567-3.175.843-6.396.824-9.622a50.116 50.116 0 0 0-.825-9.653z" fill="#F00"></path><path d="M16.55 20.61l10.413-5.997L16.55 8.616v11.993z" fill="#fff"></path></symbol><symbol viewBox="0 0 20 14" id="icon-youtube"><path fill-rule="evenodd" clip-rule="evenodd" d="M17.349.418c.838.23 1.498.908 1.722 1.768.407 1.56.407 4.814.407 4.814s0 3.254-.407 4.814a2.473 2.473 0 0 1-1.722 1.768C15.83 14 9.739 14 9.739 14s-6.09 0-7.61-.418a2.473 2.473 0 0 1-1.722-1.768C0 10.254 0 7 0 7s0-3.254.407-4.814A2.473 2.473 0 0 1 2.129.418C3.65 0 9.74 0 9.74 0s6.091 0 7.61.418zM7.912 4.26v6.087l4.87-3.043-4.87-3.044z" fill="#000"></path></symbol></svg>