<svg xmlns="http://www.w3.org/2000/svg" width="23.852" height="18.818" viewBox="0 0 23.852 18.818">
    <g transform="translate(18342 15990.909)">
        <g transform="translate(-18741.074 -16267.6)">
            <path d="M411,292.5c-6.4,0-11.5-5.6-11.7-5.8a1.049,1.049,0,0,1,0-1.3c.2-.2,5.3-5.8,11.7-5.8s11.5,5.6,11.7,5.8a1.049,1.049,0,0,1,0,1.3C422.5,286.9,417.4,292.5,411,292.5Zm-9.6-6.5c1.5,1.4,5.3,4.5,9.6,4.5s8.1-3.1,9.6-4.5c-1.5-1.4-5.3-4.5-9.6-4.5S402.9,284.6,401.4,286Z"/>
            <circle cx="2" cy="2" r="2" transform="translate(409 284)"/>
        </g>
        <line class="interaction" y1="16" x2="19" transform="translate(-18339.5 -15989.5)" fill="none" stroke="#000" stroke-linecap="round"
              stroke-width="2"/>
    </g>
</svg>
