<svg xmlns="http://www.w3.org/2000/svg" width="21" height="14.5" viewBox="0 0 21 14.5">
  <g id="noun_delivery_2357068" transform="translate(53 127)">
    <g id="Group_29" data-name="Group 29" transform="translate(-55 -132)">
      <path id="Path_28" data-name="Path 28" d="M16,12h6V11L19,8H16Zm0-5h3.571L23,10.333V16a1,1,0,0,1-1,1H20.5a2.5,2.5,0,0,1-5,0h-7a2.5,2.5,0,0,1-5,0H3a1,1,0,0,1-1-1V6A1,1,0,0,1,3,5H15a1,1,0,0,1,1,1Zm-5.216,3H5.5a.5.5,0,0,0,0,1h5.293L9.646,12.146a.5.5,0,0,0,.707.707l2-2a.5.5,0,0,0,0-.709l-2-1.978a.5.5,0,0,0-.7.711ZM6,18.5A1.5,1.5,0,1,0,4.5,17,1.5,1.5,0,0,0,6,18.5Zm12,0A1.5,1.5,0,1,0,16.5,17,1.5,1.5,0,0,0,18,18.5Z" fill="#9fa6b2" fill-rule="evenodd"/>
    </g>
  </g>
</svg>
