<svg width="20" height="20" viewBox="0 0 20 20" fill="none" xmlns="http://www.w3.org/2000/svg">
<path fill-rule="evenodd" clip-rule="evenodd" d="M10.1074 20C10.2422 15.5723 10.3574 13.5508 11.9277 11.9277C12.3711 11.498 12.8438 11.1777 13.3887 10.9375C14.8359 10.2969 16.7832 10.2109 20 10.1074C20 14.0996 19.9863 17.0859 18.5566 18.5566C17.0859 19.9863 14.2363 20 10.1074 20ZM9.8926 20C6.998 20 4.7324 19.9922 3.1289 19.4961C2.4453 19.2852 1.8828 18.9844 1.4434 18.5566C0.0136703 17.0859 0 14.0996 0 10.1074C4.4277 10.2422 6.4492 10.3574 8.0723 11.9277C9.6426 13.5508 9.75 15.5723 9.8926 20ZM0 9.8926C4.4277 9.75 6.4492 9.6426 8.0723 8.0723C9.6426 6.4492 9.7578 4.4277 9.8926 0C5.7715 0 2.9141 0.0136703 1.4434 1.4434C0.0136703 2.9141 0 5.9004 0 9.8926ZM10.1074 0C10.2422 4.4277 10.3574 6.4492 11.9277 8.0723C13.5508 9.6426 15.5723 9.75 20 9.8926C20 5.9004 19.9863 2.9141 18.5566 1.4434C17.0859 0.0136703 14.2363 0 10.1074 0Z" fill="black"/>
</svg>
