<svg xmlns="http://www.w3.org/2000/svg" width="24.996" height="25" viewBox="0 0 24.996 25">
  <g id="Union_5" data-name="Union 5" transform="translate(-1089.002 13857)" fill="none">
    <path d="M1107-13835.5a3.5,3.5,0,0,1,3.5-3.5,3.5,3.5,0,0,1,3.5,3.5,3.5,3.5,0,0,1-3.5,3.5A3.5,3.5,0,0,1,1107-13835.5Zm-9,0a3.5,3.5,0,0,1,3.5-3.5,3.5,3.5,0,0,1,3.5,3.5,3.5,3.5,0,0,1-3.5,3.5A3.5,3.5,0,0,1,1098-13835.5Zm-9,0a3.5,3.5,0,0,1,3.5-3.5,3.5,3.5,0,0,1,3.5,3.5,3.5,3.5,0,0,1-3.5,3.5A3.5,3.5,0,0,1,1089-13835.5Zm18-9a3.5,3.5,0,0,1,3.5-3.5,3.5,3.5,0,0,1,3.5,3.5,3.5,3.5,0,0,1-3.5,3.5A3.5,3.5,0,0,1,1107-13844.5Zm-9,0a3.5,3.5,0,0,1,3.5-3.5,3.5,3.5,0,0,1,3.5,3.5,3.5,3.5,0,0,1-3.5,3.5A3.5,3.5,0,0,1,1098-13844.5Zm-9,0a3.5,3.5,0,0,1,3.5-3.5,3.5,3.5,0,0,1,3.5,3.5,3.5,3.5,0,0,1-3.5,3.5A3.5,3.5,0,0,1,1089-13844.5Zm18-9a3.5,3.5,0,0,1,3.5-3.5,3.5,3.5,0,0,1,3.5,3.5,3.5,3.5,0,0,1-3.5,3.5A3.5,3.5,0,0,1,1107-13853.5Zm-9,0a3.5,3.5,0,0,1,3.5-3.5,3.5,3.5,0,0,1,3.5,3.5,3.5,3.5,0,0,1-3.5,3.5A3.5,3.5,0,0,1,1098-13853.5Zm-9,0a3.5,3.5,0,0,1,3.5-3.5,3.5,3.5,0,0,1,3.5,3.5,3.5,3.5,0,0,1-3.5,3.5A3.5,3.5,0,0,1,1089-13853.5Z" stroke="none"/>
    <path d="M 1110.500244140625 -13833 C 1111.8779296875 -13833 1112.998779296875 -13834.12109375 1112.998779296875 -13835.4990234375 C 1112.998779296875 -13836.87890625 1111.8779296875 -13838.0009765625 1110.500244140625 -13838.0009765625 C 1109.12255859375 -13838.0009765625 1108.001708984375 -13836.87890625 1108.001708984375 -13835.4990234375 C 1108.001708984375 -13834.12109375 1109.12255859375 -13833 1110.500244140625 -13833 M 1101.5 -13833 C 1102.877685546875 -13833 1103.99853515625 -13834.12109375 1103.99853515625 -13835.4990234375 C 1103.99853515625 -13836.87890625 1102.877685546875 -13838.0009765625 1101.5 -13838.0009765625 C 1100.122314453125 -13838.0009765625 1099.001586914063 -13836.87890625 1099.001586914063 -13835.4990234375 C 1099.001586914063 -13834.12109375 1100.122314453125 -13833 1101.5 -13833 M 1092.499877929688 -13833 C 1093.877563476563 -13833 1094.998413085938 -13834.12109375 1094.998413085938 -13835.4990234375 C 1094.998413085938 -13836.87890625 1093.877563476563 -13838.0009765625 1092.499877929688 -13838.0009765625 C 1091.122192382813 -13838.0009765625 1090.001342773438 -13836.87890625 1090.001342773438 -13835.4990234375 C 1090.001342773438 -13834.12109375 1091.122192382813 -13833 1092.499877929688 -13833 M 1110.500244140625 -13842.0009765625 C 1111.8779296875 -13842.0009765625 1112.998779296875 -13843.1220703125 1112.998779296875 -13844.4990234375 C 1112.998779296875 -13845.87890625 1111.8779296875 -13847.0009765625 1110.500244140625 -13847.0009765625 C 1109.12255859375 -13847.0009765625 1108.001708984375 -13845.87890625 1108.001708984375 -13844.4990234375 C 1108.001708984375 -13843.1220703125 1109.12255859375 -13842.0009765625 1110.500244140625 -13842.0009765625 M 1101.5 -13842.0009765625 C 1102.877685546875 -13842.0009765625 1103.99853515625 -13843.1220703125 1103.99853515625 -13844.4990234375 C 1103.99853515625 -13845.87890625 1102.877685546875 -13847.0009765625 1101.5 -13847.0009765625 C 1100.122314453125 -13847.0009765625 1099.001586914063 -13845.87890625 1099.001586914063 -13844.4990234375 C 1099.001586914063 -13843.1220703125 1100.122314453125 -13842.0009765625 1101.5 -13842.0009765625 M 1092.499877929688 -13842.0009765625 C 1093.877563476563 -13842.0009765625 1094.998413085938 -13843.1220703125 1094.998413085938 -13844.4990234375 C 1094.998413085938 -13845.87890625 1093.877563476563 -13847.0009765625 1092.499877929688 -13847.0009765625 C 1091.122192382813 -13847.0009765625 1090.001342773438 -13845.87890625 1090.001342773438 -13844.4990234375 C 1090.001342773438 -13843.1220703125 1091.122192382813 -13842.0009765625 1092.499877929688 -13842.0009765625 M 1110.500244140625 -13851.0009765625 C 1111.8779296875 -13851.0009765625 1112.998779296875 -13852.1220703125 1112.998779296875 -13853.4990234375 C 1112.998779296875 -13854.87890625 1111.8779296875 -13856.0009765625 1110.500244140625 -13856.0009765625 C 1109.12255859375 -13856.0009765625 1108.001708984375 -13854.87890625 1108.001708984375 -13853.4990234375 C 1108.001708984375 -13852.1220703125 1109.12255859375 -13851.0009765625 1110.500244140625 -13851.0009765625 M 1101.5 -13851.0009765625 C 1102.877685546875 -13851.0009765625 1103.99853515625 -13852.1220703125 1103.99853515625 -13853.4990234375 C 1103.99853515625 -13854.87890625 1102.877685546875 -13856.0009765625 1101.5 -13856.0009765625 C 1100.122314453125 -13856.0009765625 1099.001586914063 -13854.87890625 1099.001586914063 -13853.4990234375 C 1099.001586914063 -13852.1220703125 1100.122314453125 -13851.0009765625 1101.5 -13851.0009765625 M 1092.499877929688 -13851.0009765625 C 1093.877563476563 -13851.0009765625 1094.998413085938 -13852.1220703125 1094.998413085938 -13853.4990234375 C 1094.998413085938 -13854.87890625 1093.877563476563 -13856.0009765625 1092.499877929688 -13856.0009765625 C 1091.122192382813 -13856.0009765625 1090.001342773438 -13854.87890625 1090.001342773438 -13853.4990234375 C 1090.001342773438 -13852.1220703125 1091.122192382813 -13851.0009765625 1092.499877929688 -13851.0009765625 M 1110.500244140625 -13832 C 1108.566650390625 -13832 1107.001708984375 -13833.5693359375 1107.001708984375 -13835.4990234375 C 1107.001708984375 -13837.4326171875 1108.566650390625 -13839.0009765625 1110.500244140625 -13839.0009765625 C 1112.433837890625 -13839.0009765625 1113.998779296875 -13837.4326171875 1113.998779296875 -13835.4990234375 C 1113.998779296875 -13833.5693359375 1112.433837890625 -13832 1110.500244140625 -13832 Z M 1101.5 -13832 C 1099.566528320313 -13832 1098.001586914063 -13833.5693359375 1098.001586914063 -13835.4990234375 C 1098.001586914063 -13837.4326171875 1099.566528320313 -13839.0009765625 1101.5 -13839.0009765625 C 1103.43359375 -13839.0009765625 1104.99853515625 -13837.4326171875 1104.99853515625 -13835.4990234375 C 1104.99853515625 -13833.5693359375 1103.43359375 -13832 1101.5 -13832 Z M 1092.499877929688 -13832 C 1090.566284179688 -13832 1089.001342773438 -13833.5693359375 1089.001342773438 -13835.4990234375 C 1089.001342773438 -13837.4326171875 1090.566284179688 -13839.0009765625 1092.499877929688 -13839.0009765625 C 1094.433471679688 -13839.0009765625 1095.998413085938 -13837.4326171875 1095.998413085938 -13835.4990234375 C 1095.998413085938 -13833.5693359375 1094.433471679688 -13832 1092.499877929688 -13832 Z M 1110.500244140625 -13841.0009765625 C 1108.566650390625 -13841.0009765625 1107.001708984375 -13842.5693359375 1107.001708984375 -13844.4990234375 C 1107.001708984375 -13846.4326171875 1108.566650390625 -13848.0009765625 1110.500244140625 -13848.0009765625 C 1112.433837890625 -13848.0009765625 1113.998779296875 -13846.4326171875 1113.998779296875 -13844.4990234375 C 1113.998779296875 -13842.5693359375 1112.433837890625 -13841.0009765625 1110.500244140625 -13841.0009765625 Z M 1101.5 -13841.0009765625 C 1099.566528320313 -13841.0009765625 1098.001586914063 -13842.5693359375 1098.001586914063 -13844.4990234375 C 1098.001586914063 -13846.4326171875 1099.566528320313 -13848.0009765625 1101.5 -13848.0009765625 C 1103.43359375 -13848.0009765625 1104.99853515625 -13846.4326171875 1104.99853515625 -13844.4990234375 C 1104.99853515625 -13842.5693359375 1103.43359375 -13841.0009765625 1101.5 -13841.0009765625 Z M 1092.499877929688 -13841.0009765625 C 1090.566284179688 -13841.0009765625 1089.001342773438 -13842.5693359375 1089.001342773438 -13844.4990234375 C 1089.001342773438 -13846.4326171875 1090.566284179688 -13848.0009765625 1092.499877929688 -13848.0009765625 C 1094.433471679688 -13848.0009765625 1095.998413085938 -13846.4326171875 1095.998413085938 -13844.4990234375 C 1095.998413085938 -13842.5693359375 1094.433471679688 -13841.0009765625 1092.499877929688 -13841.0009765625 Z M 1110.500244140625 -13850.0009765625 C 1108.566650390625 -13850.0009765625 1107.001708984375 -13851.5654296875 1107.001708984375 -13853.4990234375 C 1107.001708984375 -13855.4326171875 1108.566650390625 -13857.0009765625 1110.500244140625 -13857.0009765625 C 1112.433837890625 -13857.0009765625 1113.998779296875 -13855.4326171875 1113.998779296875 -13853.4990234375 C 1113.998779296875 -13851.5654296875 1112.433837890625 -13850.0009765625 1110.500244140625 -13850.0009765625 Z M 1101.5 -13850.0009765625 C 1099.566528320313 -13850.0009765625 1098.001586914063 -13851.5654296875 1098.001586914063 -13853.4990234375 C 1098.001586914063 -13855.4326171875 1099.566528320313 -13857.0009765625 1101.5 -13857.0009765625 C 1103.43359375 -13857.0009765625 1104.99853515625 -13855.4326171875 1104.99853515625 -13853.4990234375 C 1104.99853515625 -13851.5654296875 1103.43359375 -13850.0009765625 1101.5 -13850.0009765625 Z M 1092.499877929688 -13850.0009765625 C 1090.566284179688 -13850.0009765625 1089.001342773438 -13851.5654296875 1089.001342773438 -13853.4990234375 C 1089.001342773438 -13855.4326171875 1090.566284179688 -13857.0009765625 1092.499877929688 -13857.0009765625 C 1094.433471679688 -13857.0009765625 1095.998413085938 -13855.4326171875 1095.998413085938 -13853.4990234375 C 1095.998413085938 -13851.5654296875 1094.433471679688 -13850.0009765625 1092.499877929688 -13850.0009765625 Z" stroke="none" fill="#5bceff"/>
  </g>
</svg>
