<svg width="44" height="60" viewBox="0 0 44 60" fill="none" xmlns="http://www.w3.org/2000/svg">
<path d="M42.4649 21.8714L43.8397 20.0736L42.2421 18.4761L43.2958 16.4744L41.4471 15.1638L42.1477 13.0148L40.1025 12.0328L40.4235 9.79133L38.25 9.17003L38.1858 6.91341L35.9424 6.67168L35.5005 4.45471L33.242 4.59069L32.4357 2.48889L30.23 3.00254L29.0838 1.06692L26.9933 1.94505L25.5279 0.226598L23.6244 1.44649L21.8776 0L20.2177 1.52205L18.2576 0.390871L16.879 2.17732L14.7565 1.39552L13.6933 3.39154L11.4688 2.97799L10.7587 5.11754L8.49835 5.08354L8.1603 7.31563L5.92255 7.66311L5.96791 9.9254L3.83586 10.6449L4.25321 12.8656L2.26287 13.942L3.05221 16.0589L1.27521 17.4525L2.41581 19.3957L0.899414 21.0669L2.35161 22.8043L1.14682 24.7059L2.86336 26.1675L1.98717 28.2636L3.93221 29.4023L3.41856 31.6023L5.5373 32.4068L5.40326 34.6577L7.6259 35.094L7.87705 37.3411L10.1053 37.3902L2.54231 56.0495C2.39313 56.4158 2.48947 56.8388 2.78406 57.1051C3.07865 57.3732 3.50731 57.4261 3.85666 57.2392L11.5972 53.1697L15.002 59.5034C15.1663 59.8093 15.4873 60 15.8329 60C15.8499 60 15.8668 60 15.8838 60C16.2483 59.9792 16.5712 59.7507 16.7072 59.4127L22.8577 44.2489L28.5796 59.3863C28.7099 59.73 29.0252 59.966 29.3897 59.9943C29.4142 59.9962 29.4388 59.9962 29.4633 59.9962C29.8013 59.9962 30.1167 59.8149 30.2848 59.5185L33.852 53.2188L41.498 57.3959C41.6472 57.4771 41.8191 57.513 41.9701 57.5111C42.4177 57.5337 42.9332 57.0956 42.9332 56.5669C42.9332 56.3573 42.8634 56.1628 42.7482 56.006L35.4778 36.7992L37.6004 36.6481L37.7552 34.399L39.9571 33.8608L39.7192 31.6117L41.787 30.7148L41.1789 28.5393L43.0749 27.3005L42.0986 25.2573L43.7585 23.7183L42.4649 21.8714ZM15.7214 56.8445L12.8265 51.4588C12.6566 51.1415 12.3299 50.9602 11.9937 50.9602C11.8446 50.9602 11.6954 50.9942 11.5556 51.0698L5.26915 54.3764L11.2988 39.4996L13.0078 39.2446L13.9936 41.2765L16.1463 40.5722L17.4663 42.4134L19.4624 41.354L21.0713 42.9327L21.4999 42.6022L15.7214 56.8445ZM40.1743 54.518L33.9501 51.1189C33.4969 50.8715 32.9304 51.0339 32.6754 51.4814L29.6427 56.8369L24.2343 42.5304L24.7046 42.8609L26.2436 41.1916L28.2869 42.1528L29.52 40.2549L31.6973 40.8535L32.4923 39.0029L32.532 39.0124C32.7831 39.0671 33.0173 38.9803 33.2231 38.8405L34.2806 38.9482L40.1743 54.518ZM38.7788 23.1989L37.506 24.3811L38.2557 25.9484L36.8092 26.8945L37.2756 28.562L35.6818 29.2531L35.865 30.9772L34.1881 31.387L34.071 33.1168L32.3356 33.2414L31.9352 34.9221L30.213 34.7503L29.5294 36.3422L27.862 35.8833L26.9178 37.3373L25.3466 36.5971L24.172 37.8737L22.7557 36.8804L21.3753 37.9416L20.1365 36.7236L18.6126 37.5319L17.6042 36.125L15.9537 36.6651L15.1965 35.1034L13.4837 35.3583L13.0003 33.6909L11.2686 33.6512L11.076 31.9328L9.37265 31.5966L9.47465 29.8706L7.8506 29.2531L8.2453 27.5573L6.74781 26.6811L7.4144 25.0873L6.09631 23.9656L7.0235 22.5059L5.9131 21.1784L7.0839 19.8886L6.2077 18.3967L7.5617 17.3355L6.9536 15.7096L8.47565 14.8843L8.15655 13.1848L9.80319 12.6277L9.76735 10.8979L11.4801 10.6317L11.7388 8.91701L13.4705 8.94343L14.0162 7.30241L15.7252 7.61966L16.5391 6.09006L18.1726 6.69246L19.2301 5.32149L20.7295 6.18636L22.006 5.01556L23.343 6.12216L24.7933 5.19309L25.9112 6.50364L27.5107 5.83324L28.3888 7.31941L30.0865 6.92286L30.7059 8.53743L32.4413 8.43168L32.7812 10.1369L34.5015 10.322L34.5506 12.0498L36.2143 12.5257L35.9669 14.246L37.5286 14.9938L36.9923 16.6405L38.4086 17.6452L37.6004 19.1823L38.8279 20.4098L37.776 21.7864L38.7788 23.1989Z" fill="white"/>
<path d="M35.9291 19.9639L35.4626 19.4956L35.7723 18.9102C35.9933 18.4909 35.8686 17.9735 35.4834 17.6997L34.9395 17.3145L35.1454 16.6838C35.2927 16.2343 35.0831 15.7452 34.6563 15.5413L34.0558 15.2542L34.1502 14.5914C34.2163 14.125 33.9274 13.6812 33.4741 13.549L32.8359 13.3658L32.817 12.7011C32.8038 12.229 32.4431 11.84 31.9729 11.7909L31.3157 11.7192L31.1854 11.0658C31.0947 10.605 30.7076 10.2897 30.2015 10.3085L29.5368 10.3482L29.3008 9.73069C29.1346 9.28881 28.6663 9.04329 28.2037 9.14904L27.5522 9.30011L27.216 8.73362C26.9743 8.32573 26.472 8.15953 26.0377 8.34459L25.4183 8.60332L24.9877 8.09909C24.6818 7.73841 24.1587 7.66098 23.7603 7.91592L23.2013 8.27284L22.6839 7.84417C22.3213 7.54391 21.7887 7.55524 21.4432 7.87627L20.9541 8.32382L20.3781 7.99147C19.9664 7.75542 19.4453 7.85926 19.1582 8.23317L18.7541 8.75627L18.129 8.52399C17.6871 8.36159 17.1924 8.55042 16.9677 8.96587L16.6561 9.55317L15.9989 9.43232C15.5363 9.353 15.0793 9.61738 14.9301 10.063L14.7224 10.6919L14.0558 10.6824C14.052 10.6824 14.0464 10.6824 14.0426 10.6824C13.5761 10.6824 13.1796 11.0242 13.1097 11.485L13.0096 12.1422L12.3505 12.2441C11.8841 12.3178 11.5423 12.7238 11.5518 13.1978L11.565 13.8625L10.9361 14.074C10.4905 14.2232 10.2223 14.6783 10.3092 15.1409L10.4319 15.7981L9.84464 16.1172C9.42919 16.3419 9.24416 16.8367 9.41034 17.2767L9.64449 17.9018L9.12329 18.3115C8.75128 18.6024 8.65305 19.1254 8.89099 19.5314L9.22524 20.1017L8.77959 20.5946C8.46234 20.944 8.45099 21.4727 8.75314 21.8334L9.18369 22.3452L8.82679 22.9079C8.57563 23.3045 8.65494 23.8257 9.01374 24.1316L9.51984 24.5603L9.26114 25.1797C9.07985 25.614 9.24789 26.1182 9.65578 26.358L10.2261 26.6904L10.075 27.3381C9.9674 27.7988 10.2166 28.2672 10.6585 28.4353L11.2817 28.6713L11.2439 29.3322C11.2156 29.8043 11.5404 30.2254 12.005 30.3142L12.6602 30.4426L12.7339 31.1035C12.7868 31.5738 13.1796 31.9307 13.6517 31.942L14.3164 31.9571L14.5033 32.5991C14.6336 33.0524 15.0869 33.3356 15.5476 33.2695L16.2029 33.1713L16.4918 33.7681C16.6996 34.1948 17.1867 34.4026 17.6343 34.2534L18.2707 34.0476L18.6597 34.5876C18.9335 34.971 19.4528 35.0918 19.8702 34.8709L20.4556 34.5612L20.9314 35.0276C21.1146 35.207 21.3525 35.2977 21.5924 35.2977C21.7944 35.2977 21.9965 35.2335 22.1683 35.1013L22.6933 34.6972L23.2372 35.0786C23.6224 35.3505 24.153 35.292 24.4741 34.9464L24.9273 34.4554L25.5278 34.7368C25.9545 34.9426 26.4644 34.7916 26.7213 34.3969L27.0838 33.8361L27.7258 34.0136C28.181 34.1401 28.6587 33.9097 28.8438 33.4754L29.1063 32.8654L29.7691 32.9315C30.2431 32.9731 30.6718 32.6709 30.7813 32.2101L30.9342 31.5681L31.5971 31.5209C32.0673 31.4869 32.4393 31.113 32.4714 30.6428L32.5167 29.9781L33.1644 29.8195C33.6233 29.7061 33.9293 29.2718 33.8783 28.8035L33.8084 28.1407L34.4164 27.8782C34.8489 27.6893 35.0774 27.2116 34.9509 26.7565L34.7734 26.1163L35.3304 25.7518C35.727 25.4931 35.8705 24.9814 35.6666 24.5546L35.3795 23.9541L35.8667 23.5009C36.2142 23.1798 36.2671 22.6511 35.9952 22.2659L35.6118 21.7239L36.0159 21.1951C36.2973 20.8288 36.2633 20.2981 35.9291 19.9639ZM33.6649 22.2564L33.9708 22.6907L33.5799 23.0533C33.2777 23.3366 33.1928 23.7803 33.3703 24.1524L33.6007 24.6339L33.1569 24.9247C32.8113 25.1494 32.6527 25.5724 32.7641 25.969L32.9076 26.4808L32.4185 26.6923C32.039 26.8584 31.8105 27.2493 31.8558 27.6591L31.9124 28.1898L31.3969 28.3144C30.9984 28.4126 30.7077 28.7563 30.6793 29.168L30.6434 29.7005L30.109 29.7401C29.6974 29.7703 29.3537 30.063 29.2573 30.4634L29.1346 30.977L28.604 30.9241C28.1961 30.892 27.8071 31.1149 27.6428 31.4925L27.4331 31.9816L26.9195 31.84C26.5229 31.7286 26.1019 31.891 25.8772 32.2366L25.5863 32.6841L25.1029 32.4575C24.7309 32.2819 24.289 32.3688 24.0057 32.6709L23.6432 33.0637L23.2088 32.7597C22.8708 32.5217 22.4195 32.5331 22.0909 32.7842L21.666 33.1109L21.2827 32.7351C21.1014 32.5576 20.8634 32.4651 20.6217 32.4651C20.4706 32.4651 20.3196 32.501 20.1799 32.5746L19.7134 32.8239L19.4037 32.3895C19.1658 32.0572 18.7371 31.9118 18.3443 32.0421L17.8345 32.2083L17.6022 31.7286C17.4209 31.3585 17.0149 31.1507 16.6146 31.2074L16.0896 31.2848L15.9404 30.7712C15.8252 30.3746 15.4664 30.1008 15.0547 30.0914L14.5241 30.0781L14.4656 29.5513C14.4203 29.1415 14.1125 28.8073 13.7083 28.728L13.1833 28.6241L13.2154 28.0972C13.24 27.6837 12.9945 27.3041 12.6074 27.1587L12.1069 26.9661L12.2278 26.4468C12.3222 26.0426 12.1428 25.6253 11.7859 25.4176L11.3289 25.1494L11.5348 24.6547C11.6934 24.277 11.5877 23.8389 11.2742 23.5726L10.8681 23.227L11.1533 22.7776C11.3723 22.4302 11.3441 21.9807 11.0797 21.6653L10.736 21.2537L11.0948 20.8571C11.3724 20.5531 11.4196 20.1018 11.21 19.7448L10.9418 19.2897L11.3572 18.963C11.6801 18.71 11.8029 18.2757 11.6594 17.8905L11.4724 17.3881L11.9426 17.1313C12.3033 16.9349 12.4979 16.5308 12.4204 16.1267L12.3222 15.6017L12.8283 15.4299C13.2192 15.2996 13.4798 14.9275 13.4704 14.5178L13.459 13.9852L13.9878 13.904C14.3938 13.8398 14.7148 13.5188 14.7752 13.1109L14.8546 12.5859L15.3871 12.5935C15.7553 12.5482 16.167 12.3367 16.2973 11.9477L16.4635 11.4435L16.9922 11.5417C17.3963 11.6115 17.8042 11.4208 17.9987 11.0563L18.2499 10.5861L18.7522 10.7731C19.1393 10.9109 19.5737 10.7901 19.8267 10.4634L20.1496 10.0442L20.6104 10.3104C20.9673 10.5162 21.4167 10.4671 21.7208 10.1877L22.1136 9.82886L22.5271 10.1726C22.8444 10.4351 23.2919 10.4634 23.6375 10.2405L24.0832 9.95539L24.4269 10.3576C24.6931 10.6711 25.1331 10.7769 25.5108 10.6163L26.0075 10.4105L26.2775 10.8637C26.4871 11.2187 26.9025 11.3925 27.3048 11.3018L27.8298 11.1791L28.0204 11.6776C28.1677 12.061 28.5303 12.2951 28.9609 12.28L29.4953 12.2479L29.601 12.771C29.6822 13.177 30.0165 13.481 30.4263 13.5245L30.9531 13.5811L30.9682 14.1118C30.9796 14.5234 31.2572 14.8803 31.6537 14.9936L32.1674 15.1391L32.0918 15.6697C32.0333 16.0776 32.2467 16.4779 32.6187 16.6536L33.0983 16.8839L32.9341 17.39C32.8057 17.7828 32.9492 18.2134 33.2853 18.4513L33.7196 18.7591L33.4722 19.2293C33.2796 19.5938 33.3476 20.0451 33.6403 20.3378L34.0161 20.7136L33.6932 21.1385C33.4364 21.4652 33.427 21.9203 33.6649 22.2564Z" fill="white"/>
<path d="M22.3688 12.6543C17.5081 12.6543 13.5538 16.6105 13.5538 21.4712C13.5538 21.9924 13.9768 22.4154 14.498 22.4154C15.0192 22.4154 15.4422 21.9924 15.4422 21.4712C15.4422 17.651 18.5505 14.5427 22.3688 14.5427C22.89 14.5427 23.313 14.1197 23.313 13.5985C23.313 13.0773 22.8919 12.6543 22.3688 12.6543Z" fill="white"/>
</svg>
