<svg width="48" height="60" viewBox="0 0 48 60" fill="none" xmlns="http://www.w3.org/2000/svg">
<path d="M45.972 3.32892H39.2288V1.89466C39.2288 0.848806 38.38 0 37.3342 0C36.2883 0 35.4395 0.848806 35.4395 1.89466V3.32892H30.2842V1.89466C30.2842 0.848806 29.4354 0 28.3895 0C27.3436 0 26.4948 0.848806 26.4948 1.89466V3.32892H21.3395V1.89466C21.3395 0.848806 20.4907 0 19.4449 0C18.399 0 17.5502 0.848806 17.5502 1.89466V3.32892H12.3948V1.89466C12.3948 0.848806 11.546 0 10.5002 0C9.45432 0 8.60552 0.848806 8.60552 1.89466V3.32892H1.89466C0.848806 3.32892 0 4.17773 0 5.22358V58.1053C0 59.1512 0.848806 60 1.89466 60H45.972C47.0178 60 47.8666 59.1512 47.8666 58.1053V5.22358C47.8666 4.17583 47.0178 3.32892 45.972 3.32892ZM44.0773 56.2107H3.78931V7.11823H8.60552V8.55059C8.60552 9.59644 9.45432 10.4452 10.5002 10.4452C11.546 10.4452 12.3948 9.59644 12.3948 8.55059V7.11823H17.5502V8.55059C17.5502 9.59644 18.399 10.4452 19.4449 10.4452C20.4907 10.4452 21.3395 9.59644 21.3395 8.55059V7.11823H26.4948V8.55059C26.4948 9.59644 27.3436 10.4452 28.3895 10.4452C29.4354 10.4452 30.2842 9.59644 30.2842 8.55059V7.11823H35.4395V8.55059C35.4395 9.59644 36.2883 10.4452 37.3342 10.4452C38.38 10.4452 39.2288 9.59644 39.2288 8.55059V7.11823H44.0773V56.2107Z" fill="white"/>
<path d="M38.4198 22.2688H9.44675C8.4009 22.2688 7.55209 21.42 7.55209 20.3741C7.55209 19.3283 8.4009 18.4795 9.44675 18.4795H38.4198C39.4657 18.4795 40.3145 19.3283 40.3145 20.3741C40.3145 21.42 39.4657 22.2688 38.4198 22.2688Z" fill="white"/>
<path d="M38.4198 29.8489H9.44675C8.4009 29.8489 7.55209 29.0001 7.55209 27.9542C7.55209 26.9084 8.4009 26.0596 9.44675 26.0596H38.4198C39.4657 26.0596 40.3145 26.9084 40.3145 27.9542C40.3145 29.0001 39.4657 29.8489 38.4198 29.8489Z" fill="white"/>
<path d="M38.4198 37.426H9.44675C8.4009 37.426 7.55209 36.5772 7.55209 35.5314C7.55209 34.4855 8.4009 33.6367 9.44675 33.6367H38.4198C39.4657 33.6367 40.3145 34.4855 40.3145 35.5314C40.3145 36.5772 39.4657 37.426 38.4198 37.426Z" fill="white"/>
<path d="M23.5979 45.0051H9.44675C8.4009 45.0051 7.55209 44.1563 7.55209 43.1105C7.55209 42.0646 8.4009 41.2158 9.44675 41.2158H23.5979C24.6438 41.2158 25.4926 42.0646 25.4926 43.1105C25.4926 44.1563 24.6438 45.0051 23.5979 45.0051Z" fill="white"/>
</svg>
