<svg width="60" height="48" viewBox="0 0 60 48" fill="none" xmlns="http://www.w3.org/2000/svg">
<path d="M59.9679 8.1274C59.9547 7.95732 59.915 7.80047 59.8564 7.64173C59.8243 7.55102 59.7997 7.46033 59.7525 7.37529C59.6618 7.20899 59.5408 7.07103 59.4047 6.93875C59.3594 6.89528 59.3386 6.8329 59.2894 6.79321C59.2781 6.78376 59.263 6.78377 59.2517 6.77433C59.0476 6.61748 58.8133 6.49654 58.5449 6.43418C58.5392 6.43229 58.5355 6.42849 58.5298 6.4266H58.5279L30.4177 0.0467717C30.1417 -0.0155906 29.8564 -0.0155906 29.5805 0.0467717L1.47026 6.4266C1.19625 6.48896 0.958103 6.6137 0.748339 6.77433C0.737001 6.78377 0.721903 6.78376 0.710565 6.79321C0.661431 6.8329 0.638731 6.89528 0.593377 6.93875C0.457314 7.07103 0.336387 7.20899 0.245679 7.37529C0.198434 7.46033 0.175771 7.54913 0.141755 7.64173C0.0850624 7.79858 0.0453511 7.95542 0.0321228 8.1255C0.0283432 8.17463 0 8.22 0 8.26913V38.8115C0 39.694 0.610422 40.4594 1.47026 40.654L29.5805 47.0339C29.7185 47.066 29.8583 47.0811 30 47.0811C30.1417 47.0811 30.2797 47.066 30.4196 47.0339L58.5298 40.654C59.3896 40.4575 60 39.694 60 38.8115V8.26913C60 8.22 59.9717 8.17654 59.9679 8.1274ZM30 12.712L22.7036 11.0565L41.9584 6.54188L49.5723 8.27103L30 12.712ZM12.6123 12.642L19.2775 14.1558V24.2376L18.2041 23.7709C17.9962 23.6783 17.7581 23.6669 17.5408 23.7368L14.7383 24.6288L12.6123 23.049V12.642ZM30 3.82817L37.7518 5.58754L18.497 10.1022L10.4277 8.27103L30 3.82817ZM3.77953 10.637L10.7225 12.2131V23.5233C10.7225 23.8219 10.8643 24.1035 11.1043 24.2811L13.9994 26.4335C14.1638 26.5564 14.3603 26.6206 14.5625 26.6206C14.6589 26.6206 14.7553 26.6055 14.8479 26.5772L17.7751 25.6455L19.8463 26.5431C20.1411 26.6698 20.4756 26.6414 20.7421 26.4657C21.0085 26.2899 21.1691 25.9932 21.1691 25.6757V14.5828L28.1121 16.1589V42.8272L3.78143 37.3054V10.637H3.77953ZM56.2205 37.3054L31.8898 42.8272V16.1589L56.2205 10.637V37.3054Z" fill="white"/>
<path d="M35.3691 37.6249C35.439 37.6249 35.5089 37.6174 35.577 37.6023L46.1842 35.1947C46.6169 35.0964 46.9212 34.7147 46.9212 34.2725V22.7449C46.9212 22.4577 46.7908 22.1856 46.5659 22.006C46.3429 21.8265 46.0424 21.7604 45.7684 21.8227L35.1612 24.2303C34.7285 24.3286 34.4242 24.7103 34.4242 25.1525V36.68C34.4242 36.9673 34.5546 37.2394 34.7794 37.419C34.9476 37.5531 35.1574 37.6249 35.3691 37.6249ZM36.314 25.9084L45.0315 23.9298V33.5185L36.314 35.4971V25.9084Z" fill="white"/>
<path d="M38.8592 29.3877C38.9272 29.3877 38.9971 29.3801 39.067 29.365L42.6916 28.5429C43.2018 28.4277 43.5193 27.9212 43.4041 27.411C43.2869 26.9026 42.788 26.5795 42.2739 26.6985L38.6494 27.5206C38.1391 27.6359 37.8217 28.1423 37.937 28.6525C38.039 29.091 38.4283 29.3877 38.8592 29.3877Z" fill="white"/>
<path d="M42.4934 30.5305L38.6591 31.362C38.1489 31.4735 37.8276 31.9761 37.9372 32.4864C38.0336 32.9286 38.4248 33.2309 38.8595 33.2309C38.9237 33.2309 38.9917 33.2253 39.0597 33.2101L42.8941 32.3786C43.4043 32.2672 43.7256 31.7645 43.616 31.2542C43.5064 30.744 43.0226 30.4133 42.4934 30.5305Z" fill="white"/>
</svg>
