<svg width="50" height="60" viewBox="0 0 50 60" fill="none" xmlns="http://www.w3.org/2000/svg">
<path d="M41.2281 60H7.87757C3.53354 60 0 56.4664 0 52.1224V7.87757C0 3.53354 3.53354 0 7.87757 0H41.2281C45.5722 0 49.1057 3.53354 49.1057 7.87757V52.1224C49.1057 56.4664 45.5722 60 41.2281 60ZM7.87757 4.02226C5.75181 4.02226 4.02226 5.75181 4.02226 7.87757V52.1224C4.02226 54.2482 5.75181 55.9777 7.87757 55.9777H41.2281C43.3539 55.9777 45.0834 54.2482 45.0834 52.1224V7.87757C45.0834 5.75181 43.3539 4.02226 41.2281 4.02226H7.87757Z" fill="white"/>
<path d="M12.0326 10.6914H13.6133H15.194L19.8095 23.7396H18.3635H16.9196L16.0367 21.0849H11.0873L10.2326 23.7396H8.8288H7.41699L12.0326 10.6914ZM11.8435 18.8405H15.3067L13.5731 13.5935H13.5751L11.8435 18.8405Z" fill="white"/>
<path d="M39.595 33.4705H9.42812C8.31798 33.4705 7.41699 32.5715 7.41699 31.4594C7.41699 30.3472 8.31798 29.4482 9.42812 29.4482H39.595C40.7052 29.4482 41.6062 30.3472 41.6062 31.4594C41.6062 32.5715 40.7052 33.4705 39.595 33.4705Z" fill="white"/>
<path d="M39.595 41.4305H9.42812C8.31798 41.4305 7.41699 40.5315 7.41699 39.4193C7.41699 38.3072 8.31798 37.4082 9.42812 37.4082H39.595C40.7052 37.4082 41.6062 38.3072 41.6062 39.4193C41.6062 40.5315 40.7052 41.4305 39.595 41.4305Z" fill="white"/>
<path d="M39.6795 49.3094H9.51259C8.40245 49.3094 7.50146 48.4104 7.50146 47.2982C7.50146 46.1861 8.40245 45.2871 9.51259 45.2871H39.6795C40.7897 45.2871 41.6906 46.1861 41.6906 47.2982C41.6906 48.4084 40.7897 49.3094 39.6795 49.3094Z" fill="white"/>
</svg>
