<svg width="60" height="48" viewBox="0 0 60 48" fill="none" xmlns="http://www.w3.org/2000/svg">
<path d="M55.4382 4.53791H36.8464V3.91928C36.8464 1.75892 35.0874 0 32.927 0H12.4036C10.2433 0 8.48436 1.75892 8.48436 3.91928V7.10358H3.91928C1.75892 7.10358 0 8.86253 0 11.0229V43.5524C0 45.7322 1.77249 47.5047 3.95225 47.5047H46.9539C49.1336 47.5047 50.9061 45.7322 50.9061 43.5524V40.4011H55.4382C57.618 40.4011 59.3905 38.6285 59.3905 36.4488V8.49019C59.3905 6.31043 57.618 4.53791 55.4382 4.53791ZM3.87856 43.5524V15.5938L3.91928 10.9821H10.4236L24.4834 11.0229V13.5808C24.4834 14.6513 25.3522 15.5201 26.4227 15.5201L47.0276 15.5938L46.9539 43.6261L3.87856 43.5524ZM55.4382 36.5225H50.9061V15.5938C50.9061 13.414 49.1336 11.6415 46.9539 11.6415H28.362V11.0229C28.362 8.86253 26.603 7.10358 24.4427 7.10358H12.3745L12.4036 3.87856L32.9678 3.91928V6.47719C32.9678 7.54768 33.8366 8.41648 34.9071 8.41648H55.4382L55.5119 8.49019L55.4382 36.5225Z" fill="white"/>
<path d="M25.4531 18.1514C19.1582 18.1514 14.0366 23.273 14.0366 29.5679C14.0366 35.8628 19.1582 40.9845 25.4531 40.9845C31.748 40.9845 36.8697 35.8628 36.8697 29.5679C36.8697 23.273 31.75 18.1514 25.4531 18.1514ZM25.4531 37.1059C21.2953 37.1059 17.9151 33.7238 17.9151 29.5679C17.9151 25.412 21.2972 22.0299 25.4531 22.0299C29.609 22.0299 32.9911 25.412 32.9911 29.5679C32.9911 33.7238 29.6109 37.1059 25.4531 37.1059Z" fill="white"/>
<path d="M28.6044 27.6289H27.3924V26.4168C27.3924 25.3463 26.5236 24.4775 25.4531 24.4775C24.3826 24.4775 23.5138 25.3463 23.5138 26.4168V27.6289H22.3018C21.2313 27.6289 20.3625 28.4977 20.3625 29.5682C20.3625 30.6386 21.2313 31.5074 22.3018 31.5074H23.5138V32.7195C23.5138 33.79 24.3826 34.6588 25.4531 34.6588C26.5236 34.6588 27.3924 33.79 27.3924 32.7195V31.5074H28.6044C29.6749 31.5074 30.5437 30.6386 30.5437 29.5682C30.5437 28.4977 29.6769 27.6289 28.6044 27.6289Z" fill="white"/>
</svg>
