<svg width="49" height="60" viewBox="0 0 49 60" fill="none" xmlns="http://www.w3.org/2000/svg">
<path d="M43.8827 5.12548C40.5762 1.81901 36.1833 0 31.5092 0C26.8352 0 22.4403 1.82089 19.1376 5.12548C13.7592 10.5039 12.4946 18.6118 15.8441 25.3034L14.7202 26.4274C13.5212 26.1558 11.6423 25.9441 9.85133 26.6616C5.59507 28.6136 2.43099 31.9613 0.947297 36.0883C-0.630067 40.4738 -0.227289 45.5131 2.07881 50.2808C4.29874 54.8687 7.8131 58.044 11.9794 59.2186C13.1709 59.5558 14.3923 59.7207 15.61 59.7207C18.1634 59.7207 20.6999 58.9919 22.8974 57.5813C28.5717 53.9395 34.6208 47.5363 34.8344 47.3059C35.8291 46.3112 36.3593 44.938 36.2919 43.5386C36.2282 42.2498 35.6624 41.1051 34.6976 40.3127C34.6564 40.2771 34.6133 40.2453 34.5721 40.2134C35.4563 38.4806 35.2203 36.3337 33.8921 34.8144C37.6426 34.2955 41.1701 32.587 43.8845 29.8744C50.7054 23.0497 50.7055 11.9482 43.8827 5.12548ZM32.1443 44.6964C32.0862 44.7601 26.1533 51.0377 20.8723 54.4266C18.5287 55.9309 15.6644 56.3636 12.993 55.6105C10.7861 54.9867 7.68574 53.2744 5.45083 48.6491C3.58684 44.7956 3.23845 40.7848 4.47299 37.3547C5.5408 34.3817 7.7869 31.9332 10.7393 30.4083L8.56432 32.5833C7.83184 33.3157 7.83184 34.4997 8.56432 35.2322C8.92962 35.5975 9.40926 35.7811 9.88884 35.7811C10.3684 35.7811 10.8479 35.5975 11.2132 35.2322L16.6123 29.8331L16.6141 29.8313L30.2859 16.1596C30.9697 15.4758 32.163 15.4739 32.8486 16.1596C33.1915 16.5024 33.3788 16.9576 33.3788 17.4428C33.3788 17.9261 33.1896 18.3813 32.8486 18.7242L21.1814 30.3933C20.449 31.1258 20.449 32.3116 21.1814 33.0422C21.9139 33.7747 23.0978 33.7747 23.8303 33.0422L25.61 31.2625C25.6905 31.2044 25.7842 31.1707 25.8573 31.0995C26.4324 30.5225 27.4327 30.5225 28.006 31.0995C28.2926 31.3861 28.4519 31.7683 28.4519 32.1748C28.4519 32.5795 28.2927 32.9617 27.9442 33.3101L26.661 34.717C25.9641 35.4813 26.0184 36.6672 26.7828 37.3641C27.1406 37.69 27.5938 37.853 28.0453 37.853C28.553 37.853 29.0607 37.6469 29.4297 37.2423L29.4447 37.2254C29.4485 37.2217 29.4522 37.2217 29.4541 37.2179C29.8831 36.7871 30.5912 36.7833 31.0258 37.2179C31.4417 37.6338 31.4568 38.2989 31.0765 38.7335L29.3173 40.1572C28.9052 40.4214 28.5511 40.7249 28.2683 41.0302C27.6032 41.7515 27.6051 42.8642 28.2776 43.5817C28.9464 44.3011 30.0611 44.376 30.8217 43.7578L31.5261 43.1883C31.7733 43.0609 32.0618 43.0047 32.3128 43.2089C32.4533 43.3251 32.5302 43.4974 32.5414 43.7222C32.5639 44.0557 32.4253 44.4135 32.1443 44.6964ZM32.1086 31.227C31.9194 30.1798 31.4249 29.2131 30.6568 28.4469C30.2691 28.0591 29.8156 27.7706 29.3379 27.5327L35.4976 21.3731C36.5485 20.3221 37.1255 18.9265 37.1255 17.4409C37.1255 15.9554 36.5466 14.5597 35.4976 13.5088C33.4013 11.4087 29.737 11.4087 27.637 13.5088L18.6842 22.4615C16.7341 17.4522 17.8656 11.6935 21.7865 7.77441C24.3849 5.17607 27.8356 3.74671 31.5092 3.74671C35.1829 3.74671 38.6373 5.17794 41.2338 7.77441C46.5935 13.136 46.5935 21.862 41.2338 27.2236C38.7947 29.6608 35.5425 31.0715 32.1086 31.227Z" fill="white"/>
</svg>
