<svg width="60" height="47" viewBox="0 0 60 47" fill="none" xmlns="http://www.w3.org/2000/svg">
<path d="M59.0501 44.2794H32.9274C32.4031 44.2794 31.9775 43.8539 31.9775 43.3296C31.9775 42.8053 32.4031 42.3797 32.9274 42.3797H58.1002V9.13505H54.0235C53.4992 9.13505 53.0736 8.70952 53.0736 8.1852C53.0736 7.66088 53.4992 7.23535 54.0235 7.23535H59.0501C59.5744 7.23535 59.9999 7.66088 59.9999 8.1852V43.3296C59.9999 43.8558 59.5744 44.2794 59.0501 44.2794Z" fill="white"/>
<path d="M26.913 44.2794H0.949848C0.425532 44.2794 0 43.8539 0 43.3296V8.1852C0 7.66088 0.425532 7.23535 0.949848 7.23535H5.93655C6.46087 7.23535 6.8864 7.66088 6.8864 8.1852C6.8864 8.70952 6.46087 9.13505 5.93655 9.13505H1.8997V42.3797H26.913C27.4373 42.3797 27.8628 42.8053 27.8628 43.3296C27.8628 43.8539 27.4373 44.2794 26.913 44.2794Z" fill="white"/>
<path d="M54.8536 40.7177C54.6484 40.7177 54.4395 40.6835 54.24 40.6151C36.6013 34.5912 31.4265 39.9864 31.3752 40.0415C31.0162 40.4366 30.5014 40.6683 29.9676 40.6683C29.9657 40.6683 29.9638 40.6683 29.9619 40.6683C29.4243 40.6664 28.9075 40.4442 28.5504 40.0453C28.4991 39.9902 23.3186 34.5931 5.68184 40.6171C5.10054 40.8146 4.45844 40.7196 3.96262 40.3644C3.463 40.0073 3.16855 39.4316 3.16855 38.8199V4.15049C3.16855 3.32412 3.70238 2.59273 4.48885 2.34007C5.14805 2.1311 20.1936 -2.58584 29.9619 2.00002C39.732 -2.59154 54.7757 2.1311 55.433 2.34007C56.2195 2.59273 56.7533 3.32412 56.7533 4.15049V38.8199C56.7533 39.4335 56.4569 40.0073 55.9592 40.3644C55.6325 40.5981 55.2449 40.7177 54.8536 40.7177ZM20.2677 33.9396C25.3266 33.9396 28.3357 35.2447 29.96 36.32C32.6765 34.5114 39.2932 32.0627 52.9539 36.2079V5.58094C49.0975 4.5532 37.7088 2.01902 30.8794 5.79182C30.3076 6.10717 29.6142 6.10717 29.0424 5.79182C22.2092 2.01902 10.8224 4.5532 6.96603 5.58094V36.2079C12.4751 34.538 16.8426 33.9396 20.2677 33.9396Z" fill="white"/>
<path d="M29.9997 40.7178H29.9199C29.1695 40.7178 28.4913 40.277 28.1855 39.5931C27.8796 38.9093 28.005 38.1095 28.5066 37.551C28.8713 37.1406 29.4089 36.9127 29.9712 36.8975C30.5202 36.9051 31.0597 37.1311 31.4149 37.551C31.8918 38.1152 32.0153 38.9283 31.7037 39.5989C31.3922 40.2694 30.7387 40.7178 29.9997 40.7178Z" fill="white"/>
<path d="M29.9601 39.7242C29.4358 39.7242 29.0103 39.2987 29.0103 38.7743V4.13149C29.0103 3.60717 29.4358 3.18164 29.9601 3.18164C30.4844 3.18164 30.91 3.60717 30.91 4.13149V38.7743C30.91 39.2987 30.4863 39.7242 29.9601 39.7242Z" fill="white"/>
<path d="M32.9294 46.4162H26.913C26.3887 46.4162 25.9632 45.9907 25.9632 45.4664C25.9632 42.537 27.7014 40.2422 29.9203 40.2422C32.141 40.2422 33.8792 42.537 33.8792 45.4664C33.8792 45.9926 33.4537 46.4162 32.9294 46.4162ZM27.9522 44.5165H31.8902C31.63 43.1601 30.8321 42.1419 29.9203 42.1419C29.0084 42.1419 28.2124 43.1601 27.9522 44.5165Z" fill="white"/>
</svg>
