<svg width="60" height="49" viewBox="0 0 60 49" fill="none" xmlns="http://www.w3.org/2000/svg">
<path d="M38.2924 32.3148C37.7735 32.3148 37.3524 32.7359 37.3524 33.2548C37.3524 37.308 34.055 40.6072 30 40.6072C25.9449 40.6072 22.6475 37.3098 22.6475 33.2548C22.6475 29.1998 25.9449 25.9024 30 25.9024C30.5188 25.9024 30.9399 25.4813 30.9399 24.9624C30.9399 24.4436 30.5188 24.0225 30 24.0225C24.9091 24.0225 20.7676 28.1639 20.7676 33.2548C20.7676 38.3457 24.9091 42.4872 30 42.4872C35.0908 42.4872 39.2323 38.3457 39.2323 33.2548C39.2323 32.7341 38.8112 32.3148 38.2924 32.3148Z" fill="white"/>
<path d="M29.9998 35.1892C31.0682 35.1892 31.9343 34.3231 31.9343 33.2548C31.9343 32.1864 31.0682 31.3203 29.9998 31.3203C28.9315 31.3203 28.0654 32.1864 28.0654 33.2548C28.0654 34.3231 28.9315 35.1892 29.9998 35.1892Z" fill="white"/>
<path d="M54.6252 6.33914H54.144V1.87993C54.144 0.842211 53.3018 0 52.2641 0H41.7703C40.7325 0 39.8903 0.842211 39.8903 1.87993V6.33914H5.37472C2.41006 6.33914 0 8.75109 0 11.7139V38.6985C0 41.6612 2.41194 44.0732 5.37472 44.0732H18.5963C21.467 47.098 25.5107 48.9949 30 48.9949C34.4893 48.9949 38.533 47.0961 41.4037 44.0732H54.6252C57.5899 44.0732 60 41.6612 60 38.6985V11.7139C60 8.75109 57.5899 6.33914 54.6252 6.33914ZM43.6502 3.75987H50.386V6.33914H43.6502V3.75987ZM5.37472 10.099H41.7703H52.2659H54.6271C55.5182 10.099 56.242 10.8228 56.242 11.7139V13.6182H3.75798V11.7139C3.75798 10.8228 4.48363 10.099 5.37472 10.099ZM30 45.235C23.3939 45.235 18.0192 39.8602 18.0192 33.2542C18.0192 26.6481 23.3939 21.2733 30 21.2733C36.6061 21.2733 41.9808 26.6481 41.9808 33.2542C41.9808 39.8602 36.6061 45.235 30 45.235ZM54.6252 40.3114H44.0488C45.1222 38.1852 45.7407 35.7921 45.7407 33.2523C45.7407 24.5726 38.6796 17.5116 30 17.5116C21.3203 17.5116 14.2593 24.5726 14.2593 33.2523C14.2593 35.7921 14.8778 38.1852 15.9512 40.3114H5.37472C4.48363 40.3114 3.75987 39.5877 3.75987 38.6966V36.1474H10.0069C10.5258 36.1474 10.9469 35.7263 10.9469 35.2074C10.9469 34.6885 10.5258 34.2674 10.0069 34.2674H3.75987V15.4982H56.242V34.2674H49.995C49.4761 34.2674 49.055 34.6885 49.055 35.2074C49.055 35.7263 49.4761 36.1474 49.995 36.1474H56.242V38.6966C56.2401 39.5877 55.5163 40.3114 54.6252 40.3114Z" fill="white"/>
</svg>
