<svg width="59" height="58" viewBox="0 0 59 58" fill="none" xmlns="http://www.w3.org/2000/svg">
<path d="M57.2949 0.13533C56.4719 0.00956304 52.2587 -0.499052 50.2871 1.81469C49.6065 2.61183 48.9443 4.02486 49.6509 6.24428C49.7766 6.64007 49.6971 6.86572 49.5916 7.05067C49.0331 8.03276 46.9801 8.88909 45.7003 9.18501C45.6503 9.19611 45.6133 9.2294 45.5652 9.24605C42.3452 6.59014 38.2671 5.23075 33.8967 5.37686C29.0176 5.55441 24.3717 7.61292 20.8095 11.1751L5.80065 26.1821C-1.59002 33.5727 -1.96917 45.2191 4.95542 52.1437C8.26975 55.4581 12.6661 57.0986 17.1586 57.0986C22.0524 57.0986 27.0646 55.151 30.9171 51.2985L45.9241 36.2915C52.6822 29.5315 53.557 19.2242 48.3654 12.2145C49.8506 11.6393 51.8241 10.5999 52.8024 8.89279C53.4646 7.73499 53.5959 6.43108 53.1779 5.12162C53.0188 4.62595 53.0262 4.30599 53.1002 4.21906C53.5089 3.73819 55.3973 3.59947 56.7401 3.79552C57.7518 3.94533 58.6931 3.25546 58.8466 2.24563C58.9983 1.23209 58.3047 0.29069 57.2949 0.13533ZM34.0298 9.07219C34.2129 9.06665 34.3923 9.06294 34.5736 9.06294C37.9323 9.06294 41.0377 10.2133 43.4661 12.3236L36.9354 18.8543C35.9293 18.3512 34.6365 18.4733 33.819 19.2889L32.0157 21.0922L24.0979 13.1744C26.8944 10.6628 30.3826 9.20351 34.0298 9.07219ZM33.0496 25.4219C32.737 25.7345 32.1858 25.7308 31.877 25.4219L31.6754 25.2203C31.3518 24.8966 31.3518 24.3714 31.6754 24.0477L35.1266 20.5965C35.4373 20.2858 35.9903 20.2858 36.2973 20.5947L36.5008 20.8C36.6561 20.9535 36.7431 21.1625 36.7431 21.3844C36.7431 21.6064 36.6561 21.8135 36.5008 21.9689L33.0496 25.4219ZM28.3 48.6814C22.3483 54.6313 13.0471 55.0031 7.56883 49.5267C2.08687 44.0447 2.46602 34.7453 8.41406 28.7973L22.7589 14.4543L30.7062 22.3998L30.3659 22.7401C29.3228 23.7832 29.3228 25.4829 30.3659 26.5279L30.5676 26.7295C31.0725 27.2326 31.7457 27.51 32.4614 27.51C33.1772 27.51 33.8504 27.2326 34.3535 26.7277L34.6938 26.3874L42.6412 34.3347L28.3 48.6814ZM43.9211 32.9994L36.0033 25.0816L37.8066 23.2783C38.3096 22.7734 38.5907 22.1002 38.5907 21.3844C38.5907 20.9405 38.4502 20.5318 38.2504 20.1526L44.77 13.6331C49.3956 18.9671 49.0368 27.2899 43.9211 32.9994Z" fill="white"/>
</svg>
