<svg width="60" height="53" viewBox="0 0 60 53" fill="none" xmlns="http://www.w3.org/2000/svg">
<path d="M59.0884 0.350645C58.5759 -0.0115412 57.919 -0.0982526 57.3275 0.115591L39.2972 6.62148L21.2669 0.115591C20.8411 -0.0385304 20.3826 -0.0385304 19.9569 0.115591L1.27157 6.85842C0.508668 7.13391 0 7.85829 0 8.66935V50.5962C0 51.2243 0.304439 51.8119 0.820747 52.1722C1.14826 52.4033 1.53544 52.5228 1.92652 52.5228C2.14615 52.5228 2.36775 52.4842 2.58159 52.4072L20.6119 45.9013L38.6421 52.4072C39.0679 52.5613 39.5265 52.5613 39.9523 52.4072L58.6376 45.6644C59.4005 45.3889 59.909 44.6645 59.909 43.8534V1.92653C59.909 1.29848 59.6047 0.712831 59.0884 0.350645ZM21.5732 4.32313L38.3321 10.3705V48.1996L21.5732 42.1523V4.32313ZM3.85116 10.0237L19.6467 4.32507V42.1542L3.85116 47.8548V10.0237ZM56.056 42.501L40.2605 48.1996V10.3705L56.056 4.66992V42.501Z" fill="white"/>
<path d="M23.7154 10.8154L35.5385 15.0827C35.6483 15.1212 35.7562 15.1385 35.866 15.1385C36.2609 15.1385 36.6289 14.8939 36.7734 14.5028C36.9545 14.0019 36.6944 13.449 36.1935 13.2679L24.3705 9.00064C23.8696 8.82725 23.3186 9.08157 23.1356 9.58054C22.9545 10.0814 23.2145 10.6343 23.7154 10.8154Z" fill="white"/>
<path d="M36.1916 18.5113L24.3685 14.246C23.8676 14.0745 23.3167 14.3269 23.1336 14.8258C22.9525 15.3267 23.2127 15.8797 23.7136 16.0608L35.5366 20.3261C35.6464 20.3646 35.7543 20.3819 35.8641 20.3819C36.2591 20.3819 36.6271 20.1373 36.7716 19.7462C36.9527 19.2453 36.6925 18.6924 36.1916 18.5113Z" fill="white"/>
<path d="M23.7154 21.3037L32.0554 24.313C32.1652 24.3515 32.2731 24.3688 32.3829 24.3688C32.7778 24.3688 33.1458 24.1241 33.2903 23.7331C33.4714 23.2322 33.2113 22.6793 32.7104 22.4982L24.3705 19.4889C23.8696 19.3155 23.3186 19.5699 23.1356 20.0688C22.9545 20.5697 23.2145 21.1226 23.7154 21.3037Z" fill="white"/>
<path d="M36.1916 28.9994L24.3685 24.7321C23.8676 24.5587 23.3167 24.813 23.1336 25.312C22.9525 25.8129 23.2127 26.3658 23.7136 26.5469L35.5366 30.8141C35.6464 30.8527 35.7543 30.87 35.8641 30.87C36.2591 30.87 36.6271 30.6253 36.7716 30.2342C36.9527 29.7333 36.6925 29.1804 36.1916 28.9994Z" fill="white"/>
<path d="M36.1916 34.2445L24.3685 29.9792C23.8676 29.8058 23.3167 30.0601 23.1336 30.559C22.9525 31.0599 23.2127 31.6129 23.7136 31.7939L35.5366 36.0593C35.6464 36.0978 35.7543 36.1151 35.8641 36.1151C36.2591 36.1151 36.6271 35.8705 36.7716 35.4794C36.9527 34.9785 36.6925 34.4256 36.1916 34.2445Z" fill="white"/>
<path d="M30.281 37.354L24.3705 35.2213C23.8696 35.046 23.3186 35.3003 23.1356 35.8012C22.9545 36.3021 23.2145 36.855 23.7154 37.0361L29.626 39.1688C29.7358 39.2073 29.8437 39.2247 29.9536 39.2247C30.3485 39.2247 30.7164 38.98 30.8609 38.5889C31.04 38.088 30.7819 37.5351 30.281 37.354Z" fill="white"/>
<path d="M18.1421 9.90662C18.1421 9.8546 18.121 9.80838 18.1113 9.75829C18.1017 9.69856 18.1056 9.63884 18.0844 9.57912C18.0806 9.56948 18.0728 9.56369 18.0709 9.55598C18.0439 9.48663 17.9996 9.43077 17.9572 9.37105C17.9283 9.32866 17.9072 9.28051 17.8725 9.24391C17.8186 9.18804 17.7511 9.14948 17.6837 9.1071C17.6471 9.08398 17.6162 9.05317 17.5757 9.0339C17.5102 9.00308 17.4352 8.99344 17.362 8.97996C17.3119 8.97033 17.2637 8.95108 17.2117 8.94915C17.2001 8.94915 17.1904 8.94336 17.1789 8.94336C17.1172 8.94336 17.0614 8.96841 17.0017 8.97805C16.9516 8.98768 16.9015 8.98187 16.8514 8.99921L5.82975 12.9756C5.4483 13.1143 5.19397 13.4765 5.19397 13.883V24.3709C5.19397 24.685 5.34619 24.9778 5.60434 25.1589C5.7681 25.2745 5.96265 25.3342 6.15723 25.3342C6.26897 25.3342 6.37694 25.315 6.48482 25.2783L17.5065 21.302C17.5161 21.2981 17.5218 21.2904 17.5295 21.2885C17.5931 21.2635 17.6451 21.2211 17.701 21.1845C17.7491 21.1517 17.8031 21.1267 17.8455 21.0882C17.8859 21.0477 17.9129 20.9976 17.9457 20.9514C17.9842 20.8974 18.0285 20.8493 18.0555 20.7876C18.0747 20.7433 18.0786 20.6932 18.092 20.6451C18.1132 20.5699 18.1364 20.4986 18.1384 20.4197C18.1384 20.4119 18.1421 20.4042 18.1421 20.3965V9.90662ZM7.12049 14.5611L16.2156 11.2783V19.7165L7.12049 22.9993V14.5611Z" fill="white"/>
<path d="M16.8512 24.878L5.82958 28.8543C5.32868 29.0354 5.06867 29.5884 5.24976 30.0893C5.39233 30.4803 5.76212 30.725 6.15705 30.725C6.26687 30.725 6.37484 30.7057 6.48465 30.6691L17.5063 26.6928C18.0072 26.5117 18.2672 25.9588 18.0861 25.4579C17.9031 24.957 17.356 24.7066 16.8512 24.878Z" fill="white"/>
<path d="M12.9847 31.5196L5.82958 34.1011C5.32868 34.2822 5.06867 34.8352 5.24976 35.3361C5.39233 35.7271 5.76212 35.9718 6.15705 35.9718C6.26687 35.9718 6.37484 35.9525 6.48465 35.9159L13.6397 33.3344C14.1406 33.1533 14.4006 32.6004 14.2195 32.0995C14.0365 31.5986 13.4875 31.3482 12.9847 31.5196Z" fill="white"/>
<path d="M42.6957 14.1142C42.8055 14.1142 42.9135 14.095 43.0233 14.0584L54.0449 10.082C54.5458 9.90093 54.8059 9.34804 54.6248 8.84714C54.4418 8.34817 53.8947 8.09385 53.3899 8.26724L42.3683 12.2436C41.8674 12.4247 41.6072 12.9776 41.7883 13.4785C41.9328 13.8696 42.3008 14.1142 42.6957 14.1142Z" fill="white"/>
<path d="M42.6957 19.072C42.8055 19.072 42.9135 19.0527 43.0233 19.0161L50.1784 16.4346C50.6793 16.2535 50.9393 15.7006 50.7582 15.1997C50.5752 14.7007 50.03 14.4464 49.5233 14.6198L42.3683 17.2013C41.8674 17.3824 41.6072 17.9353 41.7883 18.4362C41.9328 18.8273 42.3008 19.072 42.6957 19.072Z" fill="white"/>
<path d="M42.6957 25.4277C42.8055 25.4277 42.9135 25.4084 43.0233 25.3718L54.0449 21.3955C54.5458 21.2144 54.8059 20.6615 54.6248 20.1606C54.4418 19.6617 53.8947 19.4073 53.3899 19.5807L42.3683 23.557C41.8674 23.7381 41.6072 24.2911 41.7883 24.792C41.9328 25.183 42.3008 25.4277 42.6957 25.4277Z" fill="white"/>
<path d="M42.6957 30.3874C42.8055 30.3874 42.9135 30.3681 43.0233 30.3315L50.1784 27.75C50.6793 27.5689 50.9393 27.016 50.7582 26.5151C50.5752 26.0161 50.03 25.7618 49.5233 25.9352L42.3683 28.5167C41.8674 28.6978 41.6072 29.2508 41.7883 29.7517C41.9328 30.1427 42.3008 30.3874 42.6957 30.3874Z" fill="white"/>
<path d="M42.6957 36.7449C42.8055 36.7449 42.9135 36.7256 43.0233 36.689L54.0449 32.7127C54.5458 32.5316 54.8059 31.9787 54.6248 31.4778C54.4418 30.9788 53.8947 30.7226 53.3899 30.8979L42.3683 34.8742C41.8674 35.0553 41.6072 35.6082 41.7883 36.1091C41.9328 36.5002 42.3008 36.7449 42.6957 36.7449Z" fill="white"/>
<path d="M49.5233 37.2508L42.3683 39.8324C41.8674 40.0135 41.6072 40.5664 41.7883 41.0673C41.9309 41.4584 42.3008 41.703 42.6957 41.703C42.8055 41.703 42.9135 41.6838 43.0233 41.6472L50.1784 39.0656C50.6793 38.8845 50.9393 38.3316 50.7582 37.8307C50.5752 37.3299 50.03 37.0775 49.5233 37.2508Z" fill="white"/>
</svg>
