<svg xmlns="http://www.w3.org/2000/svg" width="14.451" height="14.453" viewBox="0 0 14.451 14.453">
  <path id="iconfinder_38-instagram_104466" d="M15.078,4.831H6.212A2.8,2.8,0,0,0,3.419,7.624V16.49a2.8,2.8,0,0,0,2.793,2.793h8.866a2.8,2.8,0,0,0,2.793-2.793V7.623A2.8,2.8,0,0,0,15.078,4.831Zm.8,1.665h.32v2.45l-2.441.008L13.749,6.5Zm-7.3,4.077A2.539,2.539,0,1,1,8.1,12.057,2.543,2.543,0,0,1,8.582,10.573Zm7.88,5.916a1.386,1.386,0,0,1-1.385,1.385H6.212A1.386,1.386,0,0,1,4.827,16.49V10.573H6.984a3.952,3.952,0,1,0,7.321,0h2.158Z" transform="translate(-3.42 -4.83)" fill="#232323"/>
</svg>
