<svg xmlns="http://www.w3.org/2000/svg" width="19.231" height="20" viewBox="0 0 19.231 20"><path d="M3.769,2A.77.77,0,0,0,3,2.769V18.923A3.077,3.077,0,0,0,6.077,22H19.154a3.077,3.077,0,0,0,3.077-3.077V8.154a.77.77,0,0,0-.769-.769H19.923V18.923a.769.769,0,1,1-1.538,0V2.769A.77.77,0,0,0,17.615,2ZM5.308,5.077H16.077V7.385H5.308Zm0,5.385H9.923V12H5.308Zm6.154,0h4.615V12H11.462ZM5.308,13.538H9.923v1.538H5.308Zm6.154,0h4.615v1.538H11.462ZM5.308,16.615H9.923v1.538H5.308Zm6.154,0h4.615v1.538H11.462Z" transform="translate(-3 -2)" fill="#9fa6b2"/></svg>