<svg xmlns="http://www.w3.org/2000/svg" width="15.364" height="14.891" viewBox="0 0 15.364 14.891">
  <g id="noun_loading_1780489" transform="translate(-2.962 -4.404)">
    <path id="Path_38" data-name="Path 38" d="M3.7,12.048a.738.738,0,0,0,.738-.738A5.465,5.465,0,0,1,10.052,5.88a6.141,6.141,0,0,1,5.4,2.552L13.662,9.914a.083.083,0,0,0-.02.1.1.1,0,0,0,.083.065l4.131.384a.073.073,0,0,0,.082-.068l.387-4.13a.1.1,0,0,0-.048-.094.083.083,0,0,0-.1,0l-1.6,1.323A7.533,7.533,0,0,0,10.052,4.4a6.925,6.925,0,0,0-7.09,6.906A.739.739,0,0,0,3.7,12.048Z" fill="#9fa6b2"/>
    <path id="Path_39" data-name="Path 39" d="M17.765,49.526h-.014a.738.738,0,0,0-.738.724,5.307,5.307,0,0,1-1.707,3.835A5.719,5.719,0,0,1,11.3,55.572a6.091,6.091,0,0,1-5.238-2.52l1.878-1.5a.083.083,0,0,0,.022-.1.1.1,0,0,0-.082-.067l-4.123-.462A.073.073,0,0,0,3.671,51l-.075.663a.737.737,0,0,0-.036.32l-.355,3.14a.1.1,0,0,0,.047.095.083.083,0,0,0,.1,0l1.557-1.242a7.484,7.484,0,0,0,6.363,3.077h.146a7.162,7.162,0,0,0,4.892-1.88,6.77,6.77,0,0,0,2.181-4.891A.738.738,0,0,0,17.765,49.526Z" transform="translate(-0.203 -37.753)" fill="#9fa6b2"/>
  </g>
</svg>
