<svg width="126" height="48" viewBox="0 0 126 48" fill="none" xmlns="http://www.w3.org/2000/svg">
<path d="M18.4354 11.2356C18.6235 10.2619 18.6913 9.26856 18.6374 8.27816C18.5996 7.43701 18.4003 6.61111 18.0506 5.84582C17.7662 5.19888 17.3235 4.63462 16.7637 4.20545C16.2131 3.8096 15.5489 3.60507 14.8719 3.62295C13.781 3.62215 12.7183 3.97061 11.8381 4.6177C10.8625 5.32756 10.0233 6.2094 9.36145 7.2203C8.60777 8.3707 7.99981 9.61092 7.55162 10.9123C7.06406 12.3078 6.72154 13.7502 6.52954 15.2165C6.36534 16.4298 6.27911 17.6525 6.2714 18.877C6.24241 20.1032 6.38902 21.3273 6.70672 22.5116C6.97361 23.5449 7.4981 24.4929 8.23078 25.2663C8.62616 25.6425 9.09457 25.9329 9.60674 26.1192C10.1189 26.3055 10.6639 26.3838 11.2075 26.349C12.3217 26.252 13.3666 25.7656 14.1604 24.9746C15.3014 23.9673 16.2576 22.7669 16.9856 21.4279L18.4354 11.2356ZM123.496 4.96584C123.994 2.86158 124.751 2.23605 126 1.89459L125.962 0.00743607C125.014 -0.0395279 124.068 0.136459 123.2 0.521377C122.331 0.906295 121.564 1.48952 120.96 2.22458C120.629 2.04147 120.285 1.88167 119.932 1.74633C118.783 1.32652 117.566 1.12666 116.343 1.15713C113.983 1.15483 111.691 1.94879 109.834 3.41156C108.928 4.12688 108.157 5.00001 107.558 5.98929C106.95 7.00036 106.563 8.12931 106.422 9.30161C106.281 10.0661 106.299 10.8517 106.475 11.6089C106.651 12.3661 106.981 13.0786 107.444 13.7014C108.561 15.0377 109.968 16.0994 111.557 16.8052C112.717 17.3629 113.859 17.844 114.944 18.3251C115.841 18.7042 116.646 19.2747 117.302 19.997C117.599 20.411 117.803 20.885 117.899 21.386C117.995 21.887 117.981 22.403 117.858 22.898C117.709 24.2032 117.111 25.4152 116.167 26.3242C115.294 27.1797 114.119 27.6533 112.9 27.6412C112.349 27.6983 111.792 27.6394 111.266 27.4681C110.739 27.2968 110.254 27.017 109.841 26.6465C109.53 26.2678 109.307 25.8235 109.19 25.3465C109.074 24.8696 109.065 24.3723 109.167 23.8918C109.284 22.956 109.603 22.057 110.1 21.2567L109.814 20.5537C109.131 20.3593 108.411 20.3396 107.719 20.4963C107.086 20.6422 106.484 20.8997 105.94 21.2567C105.414 21.6091 104.967 22.0686 104.629 22.6053C104.422 22.9251 104.257 23.27 104.137 23.6317C103.571 24.588 102.795 25.4019 101.868 26.0111C100.941 26.6203 99.8879 27.0087 98.7886 27.1467C100.511 25.6376 101.616 23.542 101.892 21.2634C102.047 20.4669 102.023 19.6458 101.821 18.86C101.619 18.0742 101.245 17.3437 100.725 16.722C99.5652 15.456 98.1535 14.4484 96.5815 13.7645C95.8881 13.4413 95.1117 13.1505 94.2792 12.8588C93.5776 12.6317 92.903 12.3279 92.2674 11.953C91.5149 11.5209 90.9135 10.8662 90.5452 10.0783C90.2478 9.19045 90.1977 8.23788 90.4004 7.32357C90.5629 6.30398 91.0419 5.36199 91.7692 4.63203C92.1144 4.25706 92.5342 3.95902 93.0014 3.75719C93.4685 3.55536 93.9726 3.45425 94.4811 3.46036C94.9444 3.41181 95.4127 3.4623 95.8552 3.60853C96.2976 3.75475 96.7042 3.9934 97.0483 4.30876C97.3066 4.64026 97.4877 5.02562 97.5784 5.43658C97.669 5.84755 97.6669 6.27368 97.5722 6.68371C97.4043 7.79139 97.05 8.86232 96.5244 9.85063L96.6377 10.4331C97.3107 10.6675 98.0258 10.7546 98.735 10.6886C99.4443 10.6226 100.131 10.4051 100.75 10.0505C101.222 9.74939 101.624 9.3508 101.931 8.88128C102.238 8.41175 102.441 7.88207 102.528 7.32743C102.613 6.62424 102.533 5.91093 102.295 5.24419C102.043 4.48924 101.612 3.80692 101.039 3.25565C100.353 2.59776 99.5393 2.08887 98.6485 1.76068C97.4993 1.34087 96.2819 1.14101 95.0593 1.17147C92.7014 1.17046 90.4114 1.96436 88.5563 3.42592C87.6497 4.14124 86.8786 5.01437 86.2797 6.00365C85.6723 7.01473 85.2853 8.14365 85.1443 9.31594C85.0046 10.0805 85.0233 10.8657 85.1991 11.6227C85.375 12.3797 85.7042 13.0922 86.1664 13.7158C87.2832 15.0517 88.6899 16.1131 90.2785 16.8186C91.4387 17.3762 92.5808 17.8574 93.6591 18.3385C94.5577 18.7192 95.3643 19.2894 96.0243 20.0104C96.3212 20.4244 96.5247 20.8984 96.6207 21.3994C96.7166 21.9004 96.7025 22.4164 96.5796 22.9114C96.4314 24.2166 95.8333 25.4286 94.8888 26.3376C94.016 27.1931 92.8413 27.6667 91.6216 27.6546C91.0699 27.7112 90.5125 27.652 89.9848 27.4807C89.4571 27.3095 88.9707 27.03 88.5563 26.6599C88.2474 26.2798 88.0272 25.8352 87.9118 25.3585C87.7964 24.8818 87.7888 24.3852 87.8895 23.9052C88.0072 22.9694 88.3257 22.0703 88.823 21.2701L88.5372 20.5671C87.8544 20.3727 87.134 20.353 86.4416 20.5097C85.8087 20.6556 85.2066 20.9131 84.6632 21.2701C84.1354 21.6208 83.6882 22.0806 83.3516 22.6187C83.0124 23.1287 82.7925 23.7091 82.7086 24.3165C82.6307 24.9658 82.6907 25.6243 82.8848 26.2486L82.8972 26.2869C81.8954 27.0411 80.7017 27.4956 79.4537 27.5982L79.3528 27.6489C79.0322 27.5934 78.7257 27.4751 78.4507 27.3007C78.1425 27.0785 77.9164 26.76 77.8077 26.3949C77.6518 25.8324 77.5837 25.2491 77.6058 24.6656C77.6864 22.2694 77.9202 19.881 78.3059 17.5149C78.4069 16.8119 78.5583 15.9444 78.7155 14.9056C78.8727 13.8669 79.0375 12.8157 79.2137 11.7387C79.3899 10.6617 79.5604 9.61054 79.7376 8.58232C79.9148 7.5541 80.0653 6.67605 80.1729 5.97303C80.2505 5.4886 80.2989 4.9999 80.3177 4.50961C80.3421 4.07151 80.2823 3.63278 80.1415 3.21739C79.9852 2.79758 79.7113 2.43217 79.3528 2.16526C78.9085 1.74386 78.3295 1.4947 77.7192 1.46225H75.8522L74.9187 2.34221C74.4957 5.50913 74.0423 8.68849 73.5756 11.8927C73.1088 15.0969 72.6611 18.283 72.2325 21.4432C71.4734 22.8207 70.4761 24.0515 69.2872 25.0779C68.466 25.9049 67.3856 26.4218 66.2286 26.5413C65.6712 26.5969 65.1115 26.4622 64.6399 26.1588C64.1684 25.8554 63.8125 25.401 63.63 24.8694C63.1953 23.5587 63.026 22.174 63.1318 20.7966C63.1699 20.0174 63.2773 18.9535 63.4538 17.6048C63.6303 16.2562 63.8342 14.8215 64.0653 13.3007C64.2984 11.7741 64.5318 10.29 64.7654 8.84823C64.9988 7.40394 65.1817 6.18823 65.3522 5.21357C65.4151 4.82046 65.4846 4.39675 65.5285 3.92138C65.5701 3.46927 65.4895 3.01423 65.2951 2.60429C65.0506 2.14665 64.6596 1.78509 64.1854 1.57798C63.3886 1.25859 62.5319 1.11821 61.6754 1.1667H61.0886C60.7947 1.17413 60.5017 1.20386 60.2123 1.25566C59.8313 1.31305 59.2978 1.3819 58.6358 1.45842C57.9738 1.53494 57.0784 1.67364 55.9487 1.86972L55.7725 3.16193C56.4833 3.2716 57.1841 3.4389 57.8681 3.66218C58.3007 3.79392 58.692 4.03614 59.0035 4.36518C59.2577 4.66188 59.4103 5.0327 59.4388 5.42304C59.4736 5.92198 59.4544 6.42325 59.3817 6.91804C59.0724 9.22317 58.753 11.5854 58.4234 14.0046C58.0957 16.4303 57.7738 18.767 57.4585 21.0348C57.3647 21.721 57.3205 22.413 57.3261 23.1056C56.9346 25.5312 53.5159 27.6011 51.5489 27.6011C51.1251 27.5341 50.7183 27.3857 50.3505 27.1639C50.0128 26.9385 49.7562 26.6098 49.619 26.2266C49.4386 25.6494 49.3597 25.0452 49.3856 24.4408C49.4237 23.58 49.499 22.4963 49.619 21.1888C49.739 19.8813 49.9276 18.2696 50.2058 16.3566C50.515 14.0891 50.7779 12.166 50.9945 10.5871C51.211 9.00828 51.4044 7.66155 51.5746 6.54693C51.7508 5.43262 51.9156 4.52682 52.0728 3.8238C52.2299 3.12078 52.3814 2.51247 52.5395 2.00649L50.9059 1.18296L47.4624 3.34938C46.7648 2.5029 45.8278 1.8889 44.7753 1.5885C43.7674 1.31568 42.7281 1.1774 41.6843 1.17722C39.9086 1.17549 38.1578 1.5967 36.5758 2.4063C34.9474 3.23642 33.4766 4.34681 32.2302 5.68703C30.9196 7.09582 29.8278 8.69485 28.9916 10.4303C28.1154 12.2271 27.4974 14.1397 27.156 16.1108C26.9225 17.7616 26.874 19.4334 27.0112 21.095C27.1211 22.6254 27.5058 24.1231 28.1467 25.5159C28.738 26.7856 29.6544 27.8748 30.8024 28.6723C32.1136 29.5191 33.653 29.9393 35.2108 29.8756C36.5563 29.8496 37.8876 29.5924 39.1467 29.1152C40.8084 28.4238 42.2501 27.2893 43.316 25.8344H43.436C43.4394 26.2877 43.4879 26.7395 43.5808 27.1831C43.6791 27.6541 43.8677 28.1015 44.1361 28.5002C44.4106 28.914 44.7805 29.2553 45.2144 29.4949C45.7463 29.7688 46.3394 29.9005 46.9366 29.8775H47.5796C47.6682 29.8775 47.7749 29.8708 47.9016 29.8651C49.6307 29.9617 51.3624 29.7274 53.0043 29.1745C54.8399 28.4889 56.4568 27.318 57.6842 25.7856C57.8285 26.273 58.0273 26.7425 58.2767 27.185C58.7399 28.0049 59.4157 28.6835 60.2323 29.1487C61.2089 29.6698 62.3059 29.921 63.4109 29.8765C64.7565 29.8501 66.0876 29.5929 67.3469 29.1161C69.0093 28.4234 70.4526 27.2892 71.5219 25.8354H71.6352C71.6386 26.2886 71.6871 26.7404 71.78 27.184C71.8783 27.6551 72.0669 28.1024 72.3354 28.5011C72.6099 28.915 72.9798 29.2562 73.4136 29.4958C73.9455 29.7697 74.5386 29.9015 75.1358 29.8785H75.7788C75.8607 29.8785 75.9493 29.8718 76.0503 29.866C77.642 29.9341 79.2331 29.7175 80.7492 29.2261L81.0264 29.1754L81.0331 29.1248C81.9709 28.7585 82.854 28.2641 83.6573 27.6556C83.7779 27.7895 83.905 27.9171 84.0384 28.0382C84.7399 28.6328 85.5528 29.0807 86.4292 29.3553C87.6558 29.7363 88.936 29.914 90.2194 29.8813C91.5775 29.895 92.9324 29.7483 94.2563 29.4442H94.3887C96.3303 29.5512 98.2754 29.3132 100.135 28.7412C101.636 28.1752 102.998 27.2892 104.127 26.1443C104.133 26.1759 104.146 26.2142 104.152 26.2457C104.367 26.9389 104.771 27.5576 105.319 28.0315C106.022 28.6249 106.834 29.0725 107.71 29.3486C108.937 29.7292 110.217 29.9069 111.501 29.8746C114.926 29.8746 117.63 29.0935 119.612 27.5312C120.588 26.773 121.403 25.8266 122.009 24.7476C122.615 23.6686 123.001 22.4788 123.142 21.2481C123.297 20.4516 123.273 19.6305 123.071 18.8447C122.869 18.0589 122.495 17.3284 121.975 16.7067C120.816 15.4407 119.404 14.4332 117.832 13.7493C117.138 13.426 116.362 13.1352 115.53 12.8435C114.828 12.6176 114.153 12.3138 113.518 11.9377C112.764 11.5075 112.162 10.8523 111.796 10.063C111.498 9.17515 111.448 8.22259 111.651 7.30828C111.813 6.28719 112.295 5.34448 113.026 4.61674C113.372 4.24176 113.791 3.94373 114.258 3.74189C114.726 3.54006 115.23 3.43893 115.738 3.44504C116.202 3.39594 116.67 3.44619 117.112 3.59244C117.555 3.7387 117.962 3.97762 118.305 4.29343C118.474 4.48315 118.606 4.7019 118.697 4.93908C118.159 5.60631 117.789 6.39366 117.619 7.23463C117.385 8.62823 117.31 10.3757 119.189 10.6101C120.166 10.749 121.16 10.5431 122.002 10.0276C122.474 9.72645 122.877 9.32786 123.183 8.85833C123.49 8.38881 123.694 7.8591 123.781 7.30445C123.865 6.60127 123.785 5.88796 123.547 5.22122C123.522 5.13252 123.49 5.04587 123.452 4.96202L123.496 4.96584ZM45.444 10.7574C45.0401 14.3232 44.3962 17.8889 43.8923 21.4356C43.1624 22.7752 42.2038 23.9756 41.0603 24.9822C40.2709 25.7751 39.2276 26.262 38.1151 26.3567C37.5715 26.3908 37.0267 26.3123 36.5146 26.126C36.0025 25.9398 35.5341 25.6497 35.1384 25.2739C34.4079 24.4989 33.8838 23.5515 33.6143 22.5193C33.2966 21.3349 33.15 20.1108 33.179 18.8846C33.1917 17.6601 33.2801 16.4376 33.4438 15.2241C33.6358 13.7579 33.9783 12.3155 34.4659 10.92C34.9115 9.61748 35.5196 8.37694 36.2757 7.22795C36.9341 6.21431 37.7738 5.33189 38.7523 4.62535C39.6326 3.97832 40.6953 3.62986 41.7862 3.63059C42.4652 3.61258 43.1316 3.81706 43.6846 4.2131C44.2409 4.64581 44.6828 5.2091 44.9715 5.85347C45.3189 6.61922 45.5159 7.4451 45.5516 8.28581C45.5707 8.56415 45.5764 8.85971 45.5707 9.15335C45.5583 9.69185 45.5011 10.2303 45.4383 10.7621L45.444 10.7574ZM16.2103 25.8354C15.1592 27.2712 13.7492 28.403 12.1229 29.1161C10.8956 29.597 9.59279 29.8545 8.27555 29.8765C6.71748 29.9433 5.17719 29.5229 3.86717 28.6733C2.72063 27.8743 1.80451 26.7854 1.21145 25.5169C0.565583 24.1259 0.180668 22.6272 0.0760166 21.096C-0.061147 19.4344 -0.0125744 17.7626 0.220812 16.1118C0.56705 14.1419 1.18484 12.23 2.05637 10.4312C2.89027 8.69417 3.98229 7.09448 5.29503 5.68703C6.54143 4.34681 8.01221 3.23642 9.64055 2.4063C11.2213 1.59309 12.9729 1.17167 14.7491 1.17722C15.7929 1.17741 16.8322 1.31569 17.8401 1.5885C18.8923 1.88957 19.8291 2.50345 20.5272 3.34938L21.2083 3.50149C23.2144 1.35418 24.2107 0.0581244 27.377 0.0437771L27.4151 1.93093C26.1663 2.27335 25.4033 2.89316 24.9109 5.00221L24.8794 5.16673C24.6648 6.2246 24.4587 7.39628 24.2612 8.6818C24.0637 9.96731 23.8599 11.4409 23.6497 13.1027C23.435 14.7606 23.1912 16.743 22.9181 19.0501C22.4133 23.0335 21.917 26.5295 21.4293 29.5379C21.0237 32.1751 20.4678 34.7868 19.7642 37.3601C19.258 39.2739 18.534 41.1228 17.6067 42.8704C16.8762 44.2351 15.8608 45.4253 14.63 46.3596C13.7856 46.9632 12.8355 47.4016 11.8295 47.6519C10.8731 47.8831 9.89277 48 8.909 48C8.17286 47.9937 7.43909 47.9152 6.71814 47.7657C5.95038 47.6181 5.20432 47.3736 4.49776 47.0378C4.23777 46.9123 3.98693 46.7684 3.74714 46.6074C3.23387 46.3658 2.77643 46.0194 2.40406 45.5902C2.03169 45.1611 1.75259 44.6586 1.58459 44.115C1.41659 43.5714 1.36339 42.9985 1.42839 42.4331C1.49338 41.8677 1.67515 41.322 1.96207 40.8312C2.85747 39.362 5.16644 39.8556 6.09993 40.0335L7.55733 41.6231C7.33525 42.3242 7.2162 43.054 7.20393 43.7895C7.17463 44.2887 7.28623 44.786 7.52589 45.2243C7.61516 45.3762 7.73367 45.5087 7.87448 45.6141C8.01529 45.7196 8.17559 45.7958 8.34604 45.8384C8.71469 45.9157 9.09698 45.8959 9.45576 45.7809C9.9088 45.6416 10.3338 45.423 10.7112 45.1353C12.3071 43.9238 13.5136 41.7768 14.3309 38.6944C15.3327 34.4773 15.9972 30.1866 16.3179 25.8631H16.2046L16.2103 25.8354Z" fill="white"/>
</svg>
