<svg width="12" height="20" viewBox="0 0 12 20" fill="none" xmlns="http://www.w3.org/2000/svg">
<path fill-rule="evenodd" clip-rule="evenodd" d="M6.5 10C3.4668 10 1 7.7575 1 5.0008C1 2.2431 3.4668 0 6.5 0C9.5339 0 12 2.2431 12 5.0008C12 7.7575 9.5339 10 6.5 10ZM6.5 2.9307C7.7558 2.9307 8.7773 3.859 8.7773 5.0008C8.7773 6.1416 7.7558 7.0706 6.5 7.0706C5.2452 7.0706 4.2227 6.1416 4.2227 5.0008C4.2227 3.859 5.2452 2.9307 6.5 2.9307ZM11.1521 17.2834L8.16333 14.2463C9.25163 13.9944 10.3012 13.5569 11.268 12.94C11.9996 12.4714 12.22 11.4888 11.759 10.7455C11.2984 10.0004 10.3319 9.7762 9.59903 10.2449C7.40903 11.6442 4.58933 11.6438 2.40053 10.2449C1.66763 9.7762 0.700829 10.0004 0.24113 10.7455C-0.219871 11.4895 -7.07688e-05 12.4714 0.731629 12.94C1.69833 13.5563 2.74793 13.9944 3.83623 14.2463L0.847029 17.2834C0.236029 17.9048 0.236029 18.9125 0.847629 19.5339C1.15383 19.8443 1.55433 19.9997 1.95483 19.9997C2.35603 19.9997 2.75713 19.8443 3.06333 19.5339L5.99943 16.5495L8.93813 19.5339C9.54913 20.1554 10.5405 20.1554 11.1521 19.5339C11.7645 18.9125 11.7645 17.9042 11.1521 17.2834Z" fill="black"/>
</svg>
