<svg xmlns="http://www.w3.org/2000/svg" width="15.686" height="16.029" viewBox="0 0 15.686 16.029">
  <g id="noun_Package_225683" transform="translate(0 -61.85)">
    <g id="Group_8" data-name="Group 8" transform="translate(0 61.849)">
      <g id="Group_7" data-name="Group 7">
        <path id="Path_14" data-name="Path 14" d="M208.685,578.341a.52.52,0,0,0-.014-.116c0-.008-.005-.015-.007-.022a.517.517,0,0,0-.033-.086c-.006-.012-.012-.022-.019-.033a.5.5,0,0,0-.045-.065c-.008-.01-.016-.02-.025-.029a.515.515,0,0,0-.067-.059c-.006,0-.01-.01-.016-.015l-.006,0a.519.519,0,0,0-.1-.054l-7.318-2.823a.525.525,0,0,0-.378,0l-7.312,2.821h0l-.005,0a.535.535,0,0,0-.1.054l-.006,0c-.006,0-.01.01-.016.014a.492.492,0,0,0-.068.06c-.009.009-.017.019-.025.029a.554.554,0,0,0-.046.066c-.006.011-.013.022-.019.033a.55.55,0,0,0-.033.086c0,.008-.006.014-.007.022a.519.519,0,0,0-.014.116s0,0,0,.007v9.333a.525.525,0,0,0,.336.49l7.318,2.823c.016.006.032.009.048.013s.027.009.041.011a.5.5,0,0,0,.2,0c.014,0,.027-.008.041-.011s.032-.007.048-.013l7.318-2.823a.525.525,0,0,0,.336-.49v-9.333s0,0,0-.007Zm-7.842,2.267-2.2-.849,5.859-2.26,2.2.849-5.859,2.26Zm0-4.52,2.2.849-5.859,2.26-2.2-.849,5.859-2.26Zm-6.793,3.025,2.609,1.006v4.067a.525.525,0,0,0,1.05,0v-3.661l2.609,1.006v8.207l-6.268-2.418v-8.207Zm13.585,8.207-6.267,2.418v-8.207l6.267-2.418v8.207Z" transform="translate(-193 -575)" fill-rule="evenodd"/>
      </g>
    </g>
  </g>
</svg>
