<svg xmlns="http://www.w3.org/2000/svg" width="20" height="20" viewBox="0 0 20 20">
  <g id="Group_177" data-name="Group 177" transform="translate(-1820 -111)">
    <circle class="background" id="Ellipse_16" data-name="Ellipse 16" cx="10" cy="10" r="10" transform="translate(1820 111)" fill="#e1e4e8"/>
    <path class="text" id="Path_56" data-name="Path 56" d="M3.055-1.859c-.754,0-1,.117-1,.91,0,.858.247,1,1,1,.793,0,1.04-.143,1.04-1C4.1-1.742,3.848-1.859,3.055-1.859ZM3.9-2.8C5.239-4.056,6.071-5.187,6.071-6.656c0-1.742-.936-2.626-3.367-2.626a9.61,9.61,0,0,0-2.353.325L.7-7.449a5.452,5.452,0,0,1,1.859-.273c1.222,0,1.573.416,1.573,1.131,0,1.4-.637,2.418-1.924,3.8Z" transform="translate(1827 126)" fill="#232323"/>
  </g>
</svg>
