<svg xmlns="http://www.w3.org/2000/svg" width="18" height="18" viewBox="0 0 18 18">
  <path class="background" id="Path_1341" data-name="Path 1341" d="M9,0a9,9,0,1,0,9,9A9,9,0,0,0,9,0Zm1.874,13.948q-.695.274-1.109.418a2.925,2.925,0,0,1-.962.144A1.916,1.916,0,0,1,7.495,14.1a1.325,1.325,0,0,1-.466-1.042,3.783,3.783,0,0,1,.034-.5c.024-.171.061-.363.112-.578l.58-2.048c.051-.2.1-.383.13-.557a2.47,2.47,0,0,0,.052-.482.743.743,0,0,0-.162-.546.918.918,0,0,0-.619-.153,1.626,1.626,0,0,0-.461.069c-.156.048-.292.091-.4.134l.153-.631q.569-.232,1.09-.4A3.219,3.219,0,0,1,8.518,7.2a1.881,1.881,0,0,1,1.289.4,1.342,1.342,0,0,1,.453,1.048q0,.134-.031.47a3.146,3.146,0,0,1-.116.618l-.577,2.042c-.047.164-.089.351-.127.561a2.965,2.965,0,0,0-.056.477.685.685,0,0,0,.182.555,1.019,1.019,0,0,0,.63.148,1.828,1.828,0,0,0,.477-.074,2.712,2.712,0,0,0,.386-.13Zm-.1-8.288a1.377,1.377,0,0,1-.971.375,1.391,1.391,0,0,1-.975-.375,1.2,1.2,0,0,1-.406-.909,1.209,1.209,0,0,1,.406-.911A1.381,1.381,0,0,1,9.8,3.461a1.365,1.365,0,0,1,.971.379,1.227,1.227,0,0,1,0,1.82Z" fill="#9fa6b2"/>
</svg>
