<svg xmlns="http://www.w3.org/2000/svg" width="16.043" height="9.104" viewBox="0 0 16.043 9.104">
  <path id="iconfinder_038_018_vkontakte_vk_social_network_android_material_1646921" d="M17.48,6.894h-2.6a.588.588,0,0,0-.518.31s-1.038,1.912-1.372,2.556c-.9,1.733-1.478,1.189-1.478.385V7.373a.874.874,0,0,0-.874-.874H8.677a1.568,1.568,0,0,0-1.385.643s.994-.161.994,1.179c0,.332.017,1.288.033,2.089a.577.577,0,0,1-1.007.4,17.044,17.044,0,0,1-1.977-3.6.548.548,0,0,0-.5-.319H2.47a.4.4,0,0,0-.38.542C2.809,9.407,5.9,15.6,9.435,15.6h1.486a.587.587,0,0,0,.587-.587v-.9a.577.577,0,0,1,.972-.421l1.779,1.672a.862.862,0,0,0,.59.234h2.336c1.127,0,1.127-.782.512-1.387-.432-.426-1.993-2.07-1.993-2.07a.806.806,0,0,1-.062-1.047c.5-.664,1.329-1.75,1.679-2.215C17.8,8.242,18.667,6.894,17.48,6.894Z" transform="translate(-2.066 -6.494)" fill="#232323"/>
</svg>
