<svg width="41" height="29" viewBox="0 0 41 29" fill="none" xmlns="http://www.w3.org/2000/svg">
<path d="M39.7133 4.98963C39.4845 4.14543 39.0386 3.37583 38.4202 2.75735C37.8017 2.13887 37.0321 1.69305 36.1879 1.46422C33.0578 0.607727 20.5373 0.607727 20.5373 0.607727C20.5373 0.607727 8.01688 0.607727 4.88802 1.4319C4.04439 1.67262 3.27687 2.12633 2.65925 2.74939C2.04163 3.37245 1.59467 4.14392 1.36136 4.98963C0.793354 8.16491 0.517477 11.3856 0.537189 14.6112C0.516767 17.8348 0.792651 21.0534 1.36136 24.2265C1.58947 25.0719 2.03509 25.8429 2.65385 26.4625C3.2726 27.0821 4.0429 27.5288 4.88802 27.7581C8.05045 28.6146 20.5386 28.6146 20.5386 28.6146C20.5386 28.6146 33.059 28.6146 36.1891 27.7905C37.0333 27.5615 37.8028 27.1157 38.4213 26.4972C39.0397 25.8787 39.4856 25.1092 39.7145 24.265C40.2825 21.0898 40.5584 17.8691 40.5387 14.6435C40.5764 11.4065 40.3004 8.17342 39.7145 4.98963H39.7133Z" fill="#FF0000"/>
<path d="M16.5508 20.6092L26.9629 14.6125L16.5508 8.61578V20.6092Z" fill="white"/>
</svg>
