<svg width="20" height="14" viewBox="0 0 20 14" fill="none" xmlns="http://www.w3.org/2000/svg">
<path fill-rule="evenodd" clip-rule="evenodd" d="M17.349 0.4179C18.1871 0.648 18.8472 1.3256 19.0712 2.1861C19.4783 3.7458 19.4783 7 19.4783 7C19.4783 7 19.4783 10.2541 19.0712 11.8139C18.8472 12.6744 18.1871 13.352 17.349 13.5821C15.8302 14 9.7391 14 9.7391 14C9.7391 14 3.6481 14 2.1291 13.5821C1.291 13.352 0.63091 12.6744 0.40691 11.8139C-5.96046e-08 10.2541 0 7 0 7C0 7 -5.96046e-08 3.7458 0.40691 2.1861C0.63091 1.3256 1.291 0.648 2.1291 0.4179C3.6481 8.9407e-08 9.7391 0 9.7391 0C9.7391 0 15.8302 8.9407e-08 17.349 0.4179ZM7.9123 4.2611V10.3481L12.7819 7.3047L7.9123 4.2611Z" fill="black"/>
</svg>
