<svg xmlns="http://www.w3.org/2000/svg" width="18" height="18.116" viewBox="0 0 18 18.116"><g transform="translate(16218.4 12047.398)"><g transform="translate(-16213.4 -12045.398)" fill="none" stroke="#fff" stroke-width="1"><circle cx="4" cy="4" r="4" stroke="none"/><circle cx="4" cy="4" r="3.5" fill="none"/></g><g transform="translate(-16507.793 -11912.443)" fill="none"><path d="M291.786-119.893a7.322,7.322,0,0,1,6.607-4.162A7.323,7.323,0,0,1,305-119.893a8.655,8.655,0,0,1-6.607,3.054A8.655,8.655,0,0,1,291.786-119.893Z" stroke="none"/><path d="M 298.3932189941406 -117.8391799926758 C 300.4200439453125 -117.8391799926758 302.3480224609375 -118.6363067626953 303.7792053222656 -120.0465621948242 C 303.2824401855469 -120.8526992797852 302.6095886230469 -121.5396499633789 301.8060913085938 -122.0559921264648 C 300.7889404296875 -122.7096099853516 299.6087951660156 -123.0551071166992 298.3932189941406 -123.0551071166992 C 297.1775512695313 -123.0551071166992 295.9974060058594 -122.709602355957 294.9803466796875 -122.0559539794922 C 294.1769409179688 -121.5395812988281 293.504150390625 -120.8525161743164 293.0075073242188 -120.0462951660156 C 294.4387512207031 -118.6362152099609 296.3666076660156 -117.8391799926758 298.3932189941406 -117.8391799926758 M 298.3932189941406 -116.8391799926758 C 295.7467651367188 -116.8391799926758 293.3772277832031 -118.0243225097656 291.7861633300781 -119.8926467895508 C 292.9655456542969 -122.3548202514648 295.4805297851563 -124.0551071166992 298.3932189941406 -124.0551071166992 C 301.3056640625 -124.0551071166992 303.8208923339844 -122.3548812866211 305.0006103515625 -119.8930511474609 C 303.4095153808594 -118.0243606567383 301.0399475097656 -116.8391799926758 298.3932189941406 -116.8391799926758 Z" stroke="none" fill="#fff"/></g><g transform="translate(-16218.4 -12047.398)" fill="none" stroke="#fff" stroke-width="1"><circle cx="9" cy="9" r="9" stroke="none"/><circle cx="9" cy="9" r="8.5" fill="none"/></g></g></svg>